<?xml version="1.0" encoding="utf-8" standalone="no" ?>
<?xml-stylesheet type="text/css" href="../Styles/CHAtlas.css" ?>
<!DOCTYPE svg PUBLIC "-//W3C//DTD SVG 1.0//EN" "http://www.w3.org/Graphics/SVG/1.1/DTD/svg11.dtd">
<svg width="700" height="495" viewBox="0 0 700 495" version="1.1" xmlns="http://www.w3.org/2000/svg">
	<g id="CH_Grenze">
		<path id="CHGrenze" class="CHGrBand" fill="none" d="
			M404.42986,66.59849L402.14969,62.39859L401.66965,61.67861L397.70936,63.95855L396.02924,61.9186L393.38904,62.87858L390.50883,63.95855
			L390.98886,67.79847L386.54854,68.39845L382.46823,68.99844L378.98798,65.99851L372.5075,60.47863L374.30763,58.19868L380.06806,50.87885
			L381.50816,42.35904L388.46868,40.79908L395.30918,39.11912L397.22932,38.63913L395.18917,33.23925L403.10976,34.43922L402.98975,38.87912
			L406.22999,43.43902L407.31007,41.15907L407.7901,40.07909L407.7901,34.19923L410.4303,35.99919L412.47045,37.43915L412.59046,39.23911
			L412.83048,43.55902L414.5106,42.95903L418.35088,41.51906L419.79099,44.039L420.63105,45.35897L416.79077,47.39893L417.39081,50.75885
			L420.03101,52.07882L418.95093,56.99871L429.15168,59.87865L430.7118,56.15873L428.0716,55.19875L424.71135,53.99878L424.71135,51.59883
			L428.43163,48.4789L429.87173,47.27893L432.39192,52.9188L436.47222,53.63879L439.35243,53.99878L439.83247,56.39873L436.47222,59.15866
			L439.95248,64.31855L439.11242,65.03853L442.83269,66.83849L447.033,65.99851L450.39325,64.43854L457.8338,60.71863L459.87395,59.75865
			L463.83424,59.99864L466.95447,60.11864L470.31472,60.23864L471.15478,61.55861L474.51503,61.7986L477.27523,62.1586L479.43539,61.67861
			L481.59555,62.75858L487.11596,65.63852L489.0361,66.59849L495.39657,69.95842L497.67674,71.27839L501.75704,74.15832L504.99728,76.67827
			L508.83756,78.71822L512.31782,80.63818L512.55784,83.63811L512.55784,84.83808L516.1581,87.83801L520.83845,91.91792L520.35841,94.07787
			L522.27856,95.15785L525.87882,97.3178L526.9589,99.11776L531.27922,98.99776L533.79941,98.99776L538.11973,94.79786L541.35996,99.59775
			L543.1601,102.23769L544.84022,101.39771L552.04075,104.27764L551.92074,106.43759L551.80074,112.07747L551.68073,115.0774L554.80096,117.35735
			L552.6408,122.03724L547.96045,122.75723L539.79985,136.19692L536.91964,140.63682L535.1195,143.51676L532.47931,151.43658L529.83911,158.63641
			L531.99927,168.1162L533.91942,175.91602L530.55917,181.5559L527.91897,185.7558L530.43916,190.1957L537.27966,189.23572L539.91986,188.87573
			L544.84022,188.15575L550.96067,187.31577L559.12128,186.11579L570.52212,191.51567L579.64279,195.83557L583.8431,193.55563L
			588.04341,195.83557L586.72331,211.91521L593.68383,214.07516L610.00503,219.35504L619.48573,230.0348L620.20578,230.75478L628.60641,227.75485
			L631.00658,226.91487L638.32712,224.27493L639.16718,211.31522L644.56758,211.79521L650.08799,212.1552L651.64811,198.35552L
			661.24881,196.19557L665.20911,203.99539L673.84975,208.31529L673.84975,208.43529L672.88967,232.07475L667.00924,239.99458L
			669.64944,247.43441L663.64899,252.1143L666.5292,254.99424L663.16896,268.43393L664.36905,271.91385L671.08954,271.07387L677.69003,276.59375
			L676.96998,283.55359L672.40964,293.99335L658.96865,289.55346L656.20844,292.31339L654.52832,291.23342L646.00769,285.35355
			L643.84753,286.79352L642.0474,276.23376L621.52588,279.71368L613.6053,293.99335L613.84532,307.43305L613.84532,314.99288L619.72575,319.19279
			L627.04629,316.79284L632.20667,321.83273L631.72664,326.39262L626.92628,328.19258L624.5261,339.71232L628.96643,344.15222L
			634.84687,352.91202L629.68648,359.51187L619.72575,362.03182L616.12548,359.75187L618.04563,355.67196L608.44492,348.71212L
			602.20446,328.79257L588.16342,333.95245L581.32291,336.47239L575.20246,338.75234L567.88192,339.59232L567.40189,347.87214L
			561.76147,346.07218L553.72088,349.5521L543.04009,346.91216L539.31981,340.91229L534.87949,333.59246L530.07913,331.43251L529.83911,322.7927
			L529.5991,306.35308L518.67829,310.19299L516.75815,306.47307L515.07802,303.23315L503.31716,307.19306L499.95691,317.39283L
			502.71711,333.71246L504.75726,344.9922L501.51702,355.55196L499.47687,362.39181L495.87661,363.11179L493.59644,368.15168L490.11618,375.59151
			L487.11596,375.71151L475.59511,386.15127L476.31516,389.2712L477.51525,394.31109L475.83513,395.39106L474.39502,396.35104L
			471.15478,398.51099L467.19449,401.15093L466.83446,402.11091L465.51437,405.59083L466.95447,407.27079L467.91454,408.35077L
			464.91432,410.87071L463.2342,411.4707L461.55407,411.95069L457.59378,411.11071L456.75372,413.39066L458.31383,414.47063L458.31383,415.43061
			L458.31383,417.23057L457.35376,421.07048L458.07382,421.31048L457.8338,422.03046L456.39369,422.51045L455.55363,424.9104L453.27346,427.43034
			L452.31339,428.63031L449.7932,426.35036L450.63327,423.11044L449.91321,419.63052L449.7932,418.31055L450.03322,417.59056L451.71335,414.23064
			L450.99329,413.15066L449.07315,414.71063L449.31317,417.23057L448.23309,420.3505L445.95292,420.2305L445.83291,418.31055L444.63282,418.67054
			L444.2728,419.27052L442.9527,418.55054L438.51237,416.0306L432.63194,412.67067L434.19205,410.75072L435.03212,409.79074L437.5523,406.67081
			L438.99241,404.99085L440.43251,403.19089L443.55274,399.35097L442.83269,396.59104L435.87218,391.19116L434.7921,391.91114L
			433.23198,392.99112L428.43163,390.47117L429.99174,389.03121L431.55186,387.47124L434.07204,385.43129L436.71224,383.27134L
			439.35243,382.31136L441.99263,381.47138L442.47266,378.95143L442.83269,377.27147L441.15257,376.0715L439.35243,374.75153L436.2322,376.43149
			L434.91211,376.55149L435.51215,379.55142L434.07204,380.75139L432.75195,382.07136L429.87173,380.15141L425.91144,381.35138
			L423.39126,384.23132L419.79099,391.31116L412.59046,386.87126L407.43008,387.71124L406.10998,380.6314L402.14969,375.59151L
			395.5492,367.1917L385.46846,361.79182L380.18807,349.6721L385.10843,341.03229L385.34845,333.35247L384.62839,318.4728L374.30763,318.11281
			L363.26682,325.43264L359.90657,327.5926L362.66677,333.11247L348.1457,350.51208L339.38505,349.07211L329.54433,359.03188L332.54455,361.31183
			L342.02525,375.35152L338.06496,387.35124L323.06385,393.11111L323.18386,404.51086L316.58337,414.71063L304.8225,414.83062L
			298.70205,431.63024L277.22047,428.27032L268.93985,419.15053L255.13883,416.63058L250.5785,423.59043L243.25796,423.47043L228.25685,435.95015
			L214.81586,430.79026L200.89483,443.74997L194.17433,439.43007L186.37376,443.50998L172.93277,420.4705L175.45295,418.79053L
			164.05211,404.27086L160.81187,400.31095L154.69142,404.51086L153.0113,402.95089L154.4514,397.91101L157.33161,387.83123L150.61112,386.63126
			L142.33051,385.0713L143.29058,375.11152L143.6506,370.07164L150.85114,359.39188L151.57119,352.79203L147.01085,347.39215L141.25043,340.5523
			L138.97026,337.91236L143.6506,334.67244L143.89062,330.95252L150.01107,332.15249L151.6912,330.95252L160.45184,330.83252L162.13197,328.07258
			L161.05189,325.43264L154.33139,320.51276L150.85114,317.87282L147.97092,315.71286L145.21072,315.23287L143.05056,314.87288
			L141.25043,314.51289L139.81032,314.2729L136.09005,311.75295L135.00997,311.03297L131.76973,311.63296L130.56964,310.91297L
			128.88951,309.95299L125.28925,307.91304L123.96915,307.79304L120.36889,307.67305L112.4483,304.79311L108.368,306.83306L105.24777,306.83306
			L101.88752,304.67311L97.92723,308.03304L96.72714,310.19299L90.36667,314.0329L85.56632,316.79284L84.12621,316.31285L82.08606,315.47287
			L78.12577,316.19285L73.56543,319.91277L71.64529,322.07272L70.20518,323.63269L67.20496,329.87254L66.72493,330.95252L62.88464,331.7925
			L59.76441,335.87241L57.60425,338.51235L56.76419,341.51228L55.92413,344.39222L53.64396,347.51215L52.68389,348.71212L51.4838,350.51208
			L51.12377,355.91196L49.56366,359.27188L48.7236,361.07184L48.24356,365.03175L47.64352,369.23165L48.60359,369.71164L51.24378,368.15168
			L54.48402,362.6318L54.96406,357.83191L56.8842,356.99193L57.84427,355.67196L60.48447,351.95204L62.40461,349.3121L63.96472,349.91209
			L62.04458,352.91202L60.9645,354.47199L63.00465,357.47192L65.16481,360.83184L69.60514,357.59192L70.20518,358.91189L71.40527,361.67183
			L67.80501,366.23172L62.2846,369.71164L59.40439,371.39161L53.16392,375.23152L51.60381,379.31143L47.28349,381.59137L44.28327,383.03134
			L39.36291,380.5114L36.96273,381.47138L31.08229,384.11132L28.20208,383.51133L23.28172,382.31136L22.44166,384.23132L19.56144,385.0713
			L22.92169,378.47145L24.84183,374.99152L21.12156,367.3117L25.92191,364.43176L30.60226,361.91182L33.00244,363.71178L37.68278,359.63187
			L41.04303,362.51181L44.04325,360.11186L43.3232,358.07191L41.28305,352.67203L44.04325,350.03209L44.88331,345.83218L45.84338,344.39222
			L47.28349,342.23226L49.56366,338.75234L51.4838,335.75241L49.08362,334.07245L36.24268,324.95266L38.40283,321.47273L39.2429,320.15276
			L37.80279,314.63289L40.08296,311.51296L50.1637,298.07326L50.04369,297.95327L43.56322,291.47341L59.52439,277.43373L72.48535,266.15398
			L82.20607,258.95415L88.32652,254.51425L91.56676,252.1143L92.64684,251.27432L93.60691,244.43448L94.92701,234.4747L93.84693,230.0348
			L91.20673,218.15507L96.84715,212.3952L99.00731,210.23525L100.44742,208.67528L114.12843,205.31536L128.76951,194.99559L132.36977,192.47565
			L128.76951,189.35572L134.76995,184.31583L143.17057,176.996L151.81121,169.79616L150.97115,166.67623L157.33161,160.67637L165.73223,153.11654
			L165.01218,142.91677L172.0927,140.87682L174.25286,140.27683L175.33294,135.71693L177.97314,134.87695L182.05344,133.55698L
			176.29301,126.95713L175.09293,125.63716L169.45251,128.1571L163.9321,128.63709L159.73179,129.11708L156.01152,129.47707L159.01174,123.23721
			L161.05189,118.79731L164.65215,118.79731L164.89217,112.79745L167.53237,110.99749L173.65282,106.67759L173.29279,105.95761
			L171.01262,99.95774L176.53303,97.91779L178.93321,98.99776L184.2136,101.39771L189.01395,99.35775L191.65415,98.03778L196.21448,100.91772
			L202.21493,100.31773L199.57473,106.55759L197.65459,110.99749L200.89483,111.23749L206.77526,111.83747L208.45539,115.1974L
			220.21626,111.35748L227.77681,113.27744L233.41723,110.3975L236.89749,106.79759L238.4576,105.23762L233.41723,103.19767L235.21736,99.59775
			L240.49775,103.07767L242.17788,101.7577L243.37797,100.79772L246.13817,98.51777L244.57806,95.03785L248.29833,95.51784L249.13839,93.35789
			L247.33826,92.9979L244.93808,92.51791L243.97801,90.47795L245.53813,89.75797L252.49864,86.51804L257.419,80.15819L262.45938,82.31814
			L265.33959,78.59822L268.2198,79.5582L270.25995,77.63825L271.58005,78.83822L269.29988,80.99817L270.25995,82.19814L271.94008,84.35809
			L267.01971,85.43807L263.77947,86.15805L265.57961,87.95801L269.65991,91.91792L272.42011,91.07794L274.82029,90.35796L279.62064,89.03799
			L286.82117,86.87804L290.18142,80.63818L292.94163,80.51818L301.22224,80.63818L304.10245,85.31807L306.50263,89.03799L309.50285,86.87804
			L310.82295,86.87804L317.18342,86.87804L321.86376,86.87804L326.66412,86.87804L329.30431,86.99803L330.98443,81.71815L333.38461,80.75817
			L338.42498,78.83822L341.54521,75.83829L344.42543,73.19835L346.46558,74.9983L347.54566,76.07828L352.94606,75.59829L356.78634,75.2383
			L361.22667,80.39818L364.10688,83.51811L367.1071,83.03812L372.02746,82.07814L374.42764,83.03812L376.34778,83.8781L381.74818,82.55813
			L384.62839,81.83815L386.30852,81.47816L385.58846,79.5582L382.34823,80.39818L380.6681,76.55827L383.42831,74.51832L389.06872,70.19841
			L396.8693,76.31827L400.58957,76.07828L401.42963,74.51832L400.34955,67.31848L404.42986,66.59849M408.87018,58.43868L410.67032,58.79867
			L415.47067,57.7187L417.39081,57.3587L414.5106,52.55881L408.87018,58.43868M400.34955,146.0367L401.06961,147.35667L406.10998,149.75662
			L407.31007,150.2366L408.51016,149.75662L415.59068,156.95645L418.5909,159.95638L419.67098,159.83639L429.63172,159.1164L430.47178,156.95645
			L432.1519,156.47646L430.23176,159.4764L431.55186,159.95638L436.71224,161.99634L439.71246,159.2364L446.55297,158.51642L450.87328,157.31644
			L451.35332,155.99647L451.83336,154.9165L447.75305,154.6765L442.83269,156.59646L439.23243,155.51648L437.19227,156.95645L434.55208,155.75648
			L432.51193,154.6765L432.99196,152.63655L430.23176,152.15656L429.03167,153.11654L427.47156,153.23654L421.59112,153.47653L
			417.63083,151.19658L413.1905,148.67664L411.63039,147.95666L404.66987,145.19672L403.46979,143.39676L401.90967,140.99681L399.98953,138.35687
			L397.70936,133.19699L396.50927,130.31705L393.74907,125.99715L392.90901,126.47714L392.66899,129.71707L393.86908,132.35701
			L395.66921,136.19692L396.38926,139.07686L399.02946,143.63675L400.34955,146.0367M409.71025,124.43719L409.95026,127.55712L
			415.8307,135.11695L416.19072,134.15697L417.2708,132.597L414.87063,131.03704L414.5106,128.5171L410.91033,124.31719L409.71025,124.43719
			M206.89527,176.63601L206.41524,175.79603L204.13507,177.47599L199.81475,181.07591L195.25441,184.91582L192.3742,186.59578L
			189.49399,188.39574L188.77394,190.1957L185.5337,191.51567L183.85357,192.23565L183.61355,193.31563L185.5337,194.39561L192.13418,190.4357
			L193.33427,187.79576L195.0144,188.87573L187.57385,194.7556L188.17389,195.71558L190.21404,195.95557L192.25419,195.11559L195.37442,193.91562
			L198.01462,191.75567L198.13463,191.15568L198.13463,190.3157L199.45472,190.67569L201.37487,186.47579L201.97491,185.03582L
			204.85512,179.63594L205.9352,178.07597L206.89527,176.63601M179.65326,207.23532L180.25331,206.27534L177.25309,202.55542L173.77283,203.3954
			L171.73268,202.19543L170.05255,201.23545L168.61245,202.67542L166.5723,204.71537L157.69164,208.79528L154.69142,210.11525L
			154.57141,212.87519L154.33139,215.27513L149.77106,217.91507L149.41103,219.35504L144.85069,221.51499L141.61045,225.35491L
			138.37021,229.19482L137.41014,230.87478L136.09005,233.27473L131.88974,235.67467L129.84959,238.19462L127.68943,239.27459L
			127.08938,240.47456L121.68898,243.71449L120.24888,246.35443L120.36889,246.95442L121.929,248.63438L123.60913,248.51438L132.00975,244.31448
			L136.57008,245.15446L139.09027,243.83449L142.81054,239.99458L144.9707,237.95462L148.21094,236.39466L153.0113,231.71476L154.21138,230.51479
			L157.69164,227.03487L161.41192,223.91494L163.9321,221.87499L165.61223,220.55501L167.29235,219.11505L170.17256,215.75512L
			172.21271,214.07516L178.45317,209.03528L179.05322,208.19529L179.65326,207.23532M277.34047,274.07381L281.30077,275.99376L
			287.06119,275.27378L288.5013,274.1938L290.42144,275.15378L291.98155,274.1938L292.34158,273.47382L290.18142,270.83388L288.14127,270.23389
			L282.14083,270.83388L280.94074,270.95388L279.14061,266.75397L271.82007,263.63404L267.73977,260.03412L264.85955,257.39418
			L263.77947,258.11417L263.41945,262.43407L268.33981,267.59395L274.58027,270.47389L274.22024,272.63384L277.34047,274.07381
			M300.62219,268.67393L305.30254,269.39391L308.30276,267.23396L318.86354,260.03412L322.4638,258.35416L323.90391,258.47416L
			323.90391,255.83422L319.22357,254.75424L316.58337,255.35423L309.02281,261.47409L305.54256,264.47402L300.38217,268.19394L
			300.62219,268.67393M348.86575,151.79657L349.58581,147.71666L349.10577,146.0367L348.86575,145.19672L346.8256,137.87688L345.74552,136.55691
			L344.78545,137.1569L345.26549,141.4768L345.74552,145.07672L347.90568,150.4766L348.38572,151.91657L348.86575,151.79657M351.74597,157.67644
			L351.50595,158.51642L351.14592,159.83639L353.42609,163.19631L355.34623,166.07625L355.94628,165.11627L356.3063,164.39628L
			355.46624,162.83632L354.98621,162.11634L354.14614,158.51642L353.18607,158.15643L351.74597,157.67644M377.30785,192.71564L
			378.38793,189.47572L379.58802,186.23579L378.98798,185.8758L374.18762,190.79569L368.66722,196.31556L367.46713,194.99559L364.22689,191.99566
			L361.10666,192.35565L363.86686,195.35558L365.42698,196.91555L364.94694,198.35552L365.787,202.19543L364.10688,203.27541L362.30675,200.99546
			L360.74663,201.83544L361.82671,203.6354L362.30675,205.55535L361.34668,207.47531L364.22689,207.11532L364.10688,209.03528L
			361.10666,209.87526L356.90635,212.2752L358.58647,213.35518L360.3866,212.87519L363.74685,210.59524L365.18696,209.63526L365.30697,207.47531
			L366.86708,206.75533L369.7473,202.43542L371.90746,202.55542L382.82826,203.03541L382.58824,204.11539L376.94783,206.03534L
			376.94783,207.23532L381.14814,208.91528L389.18873,210.59524L392.42897,209.15527L399.26947,206.15534L401.30963,205.19536L
			402.50971,206.39533L400.70958,214.79515L400.22955,217.31509L402.50971,220.19502L402.14969,221.87499L402.14969,224.27493L
			403.94982,226.07489L405.0299,224.15493L406.71002,223.19496L406.47001,220.07503L404.54986,217.43509L405.86996,212.87519L404.54986,206.39533
			L404.06983,204.35538L400.10954,202.67542L396.8693,204.71537L393.86908,205.43536L391.22888,204.35538L385.82848,204.35538L
			386.30852,202.55542L383.78833,198.23552L379.228,196.55556L374.30763,197.75553L373.22755,196.43556L377.30785,192.71564M383.54831,178.43597
			L386.0685,178.91596L386.30852,180.35592L384.86841,180.59592L383.18829,183.11586L386.66854,186.23579L390.50883,189.95571L
			392.30896,188.15575L391.4689,184.07584L387.98864,178.67596L389.66877,167.27622L384.50839,164.99627L381.50816,166.67623L381.74818,167.9962
			L383.54831,178.43597M341.4252,172.79609L336.98488,169.19618L334.34468,167.03622L333.86465,167.39622L333.86465,168.83618L
			333.98466,171.47612L335.42476,172.6761L340.34513,177.116L342.26527,178.79596L342.86531,177.95598L344.18541,176.39601L341.4252,172.79609
			M425.91144,173.03609L428.91166,178.79596L428.67165,180.59592L432.63194,184.55583L434.07204,182.99586L431.19183,181.07591
			L429.63172,170.63614L428.19161,170.03616L425.79143,171.35613L425.91144,173.03609M344.18541,233.75472L346.22556,235.79467
			L347.78567,233.39472L351.50595,230.0348L351.74597,228.47484L352.10599,226.67488L350.54588,226.79487L348.62574,229.67481L
			345.14548,231.59477L344.18541,233.75472M475.23508,174.59605L480.39546,175.55603L483.75571,176.15602L486.99595,176.756L494.79653,177.35599
			L501.87705,176.51601L502.71711,176.27602L502.95713,173.87607L490.71623,174.11606L476.07514,172.31611L474.03499,173.63608
			L475.23508,174.59605M405.62994,178.67596L407.43008,181.3159L408.63017,178.67596L406.71002,175.55603L402.2697,174.23606L401.18962,174.35606
			L401.30963,176.996L405.62994,178.67596M185.65371,268.19394L187.45384,268.91392L185.05366,271.79386L184.2136,273.95381L185.5337,275.51377
			L185.77371,280.55366L186.37376,284.99356L187.81386,285.11356L187.69386,283.1936L187.57385,280.43366L186.61378,276.35375L
			187.33383,274.55379L186.73379,272.99383L189.614,269.9939L189.97402,269.03392L187.21382,265.554L188.53392,263.15405L185.5337,265.434
			L185.65371,268.19394M191.89417,215.15514L190.45406,213.11518L189.13396,212.87519L186.37376,214.19516L182.05344,216.35511
			L180.97336,217.55508L180.01329,218.27507L178.45317,219.47504L177.73312,221.99498L178.8132,222.71497L180.73334,223.91494L
			184.93365,222.23498L185.5337,220.55501L186.37376,220.43502L187.33383,220.43502L188.53392,218.99505L189.97402,217.43509L191.89417,215.15514
			M461.19405,419.99051L461.31406,415.6706L468.15456,411.5907L468.7546,413.15066L464.6743,415.55061L466.83446,423.59043L467.67452,426.59036
			L469.23464,427.19034L473.55496,429.1103L477.51525,430.79026L478.71534,431.39025L473.91499,439.55006L472.23486,442.43L470.43473,445.42993
			L470.31472,448.90985L464.43429,449.26985L464.6743,446.9899L458.79387,445.42993L457.35376,445.06994L452.4334,447.70988L452.55341,445.18994
			L456.39369,440.15005L454.83358,435.71015L453.15345,431.27025L452.79343,430.31027L457.47377,425.27039L460.35398,427.43034
			L460.95403,431.39025L461.55407,431.87024L462.03411,430.19028L462.51414,429.1103L460.83402,426.59036L459.39391,424.5504L459.51392,422.87044
			L458.67386,422.03046L458.79387,421.31048L459.51392,421.43047L459.87395,419.63052L461.19405,419.99051M64.56477,283.67359L
			74.76552,275.63377L75.72559,273.35382L75.00554,272.87383L64.32475,281.39364L62.76463,283.43359L63.36468,284.75356L64.56477,283.67359
			"/>
	</g>
	<g id="Zuerich">
		<path class="CHBezirke" id="ZH" d="
			M374.90768,141.11681L377.54787,140.03683L379.228,136.55691L380.54809,133.79698L377.54787,133.43698L375.86775,133.31699L375.2677,130.91704
			L374.78767,128.99708L374.42764,127.31712L374.06761,126.23715L373.70759,124.79718L373.58758,123.9572L372.62751,120.47728L
			367.82715,119.6373L367.94716,119.03731L369.8673,113.63743L370.22733,112.67745L370.46735,111.83747L371.66744,108.71754L369.02724,104.75763
			L367.82715,102.71768L367.70714,101.99769L367.34712,96.11783L371.54743,92.15792L372.02746,91.67793L372.62751,91.07794L373.10754,90.59795
			L373.58758,90.11796L375.2677,88.558L375.98776,85.43807L376.34778,83.8781L381.74818,82.55813L384.62839,81.83815L386.30852,81.47816
			L385.58846,79.5582L382.34823,80.39818L380.6681,76.55827L383.42831,74.51832L389.06872,70.19841L396.8693,76.31827L393.38904,78.71822
			L392.30896,79.4382L394.46912,86.87804L395.30918,85.55807L397.10932,82.19814L399.74951,77.51825L400.58957,76.07828L401.42963,74.51832
			L400.34955,67.31848L404.42986,66.59849L402.14969,62.39859L401.66965,61.67861L404.18984,60.35864L404.30985,57.4787L406.71002,57.95869
			L408.87018,58.43868L410.67032,58.79867L411.7504,60.23864L413.31051,62.1586L417.51082,67.79847L419.79099,68.03846L421.83114,68.27846
			L424.35133,66.3585L428.67165,62.87858L431.19183,66.11851L432.87196,68.51845L429.99174,74.75831L427.71157,74.27832L422.07116,72.83835
			L422.07116,78.11823L424.23132,78.71822L428.79165,80.27819L431.91188,81.23816L435.51215,82.43814L437.5523,83.03812L433.95204,86.27805
			L438.99241,89.27798L439.47244,89.63797L442.23265,91.19794L441.99263,96.23782L441.87262,104.39764L443.79276,106.3176L448.71313,111.35748
			L444.15279,117.83734L450.75328,123.11722L456.87373,134.75695L454.95359,138.47687L450.15323,147.35667L442.83269,149.87661
			L440.79254,150.71659L435.87218,150.4766L432.03189,150.2366L430.23176,152.15656L429.03167,153.11654L427.47156,153.23654L421.59112,153.47653
			L417.63083,151.19658L413.1905,148.67664L411.63039,147.95666L404.66987,145.19672L403.46979,143.39676L401.90967,140.99681L
			399.98953,138.35687L397.70936,133.19699L396.50927,130.31705L393.74907,125.99715L392.90901,126.47714L392.66899,129.71707L
			393.86908,132.35701L395.66921,136.19692L396.38926,139.07686L399.02946,143.63675L400.34955,146.0367L401.06961,147.35667L406.10998,149.75662
			L407.31007,150.2366L408.51016,149.75662L415.59068,156.95645L418.5909,159.95638L413.91056,164.03629L415.8307,168.2362L410.55031,168.71619
			L406.83003,166.91623L404.42986,160.91636L402.74973,159.71639L398.54942,156.83646L394.94916,157.43644L387.74862,158.75641
			L386.42853,158.99641L383.06828,159.59639L379.82804,156.23647L376.82782,153.11654L375.50772,151.79657L374.90768,151.19658
			L373.46757,146.99668L372.02746,143.15676L371.78745,142.31678L374.90768,141.11681zM409.71025,124.43719L409.95026,127.55712
			L415.8307,135.11695L416.19072,134.15697L417.2708,132.597L414.87063,131.03704L414.5106,128.5171L410.91033,124.31719L409.71025,124.43719
			z"/>
	</g>
	<g id="Fribourg">
		<path class="CHBezirke" id="FR" d="
			M153.61134,250.07435L152.29124,250.07435L150.01107,250.31434L146.2908,250.55434L145.81076,250.31434L143.6506,249.23437L141.25043,248.03439
			L140.77039,247.7944L140.05034,247.43441L141.61045,245.51445L140.65038,244.91446L139.09027,243.83449L142.81054,239.99458L
			144.9707,237.95462L148.21094,236.39466L153.0113,231.71476L154.21138,230.51479L157.69164,227.03487L159.37177,229.55481L160.45184,231.11478
			L162.73201,234.4747L161.1719,236.39466L159.37177,238.55461L159.37177,240.83456L159.37177,243.71449L162.85202,244.67447L160.45184,248.63438
			L159.97181,249.59436L159.49177,249.59436L154.69142,249.95435L153.61134,250.07435zM150.49111,251.87431L152.65127,253.79426
			L153.37132,254.39425L154.09138,254.99424L155.7715,256.5542L155.05145,257.87417L152.65127,262.07408L151.21116,261.35409L149.17101,260.27412
			L147.49089,259.55413L147.01085,259.19414L145.21072,261.47409L144.61068,260.8741L142.81054,259.07414L146.05078,258.71415L
			147.97092,255.59422L149.17101,253.91426L150.49111,251.87431zM165.61223,220.55501L167.29235,219.11505L170.05255,221.99498
			L170.53259,222.59497L174.49288,226.79487L172.93277,228.23484L176.17301,233.75472L177.37309,235.67467L179.41324,233.99471
			L181.33339,232.43475L182.41347,231.59477L182.65348,228.83483L182.8935,225.5949L183.85357,226.43488L185.05366,227.27486L187.21382,225.11491
			L186.13374,223.79494L185.77371,223.31495L184.93365,222.23498L185.5337,220.55501L186.37376,220.43502L187.33383,220.43502L
			188.53392,218.99505L189.97402,217.43509L191.89417,215.15514L190.45406,213.11518L189.13396,212.87519L186.37376,214.19516L
			182.05344,216.35511L181.09337,214.31516L178.45317,209.03528L179.05322,208.19529L184.2136,207.8353L192.49421,207.23532L194.53436,206.99532
			L195.73445,206.51533L197.41457,205.79535L198.61466,205.19536L200.05477,204.59538L201.97491,203.75539L203.89505,205.79535
			L205.21515,207.23532L206.05521,208.0753L204.73511,209.03528L200.77482,211.67522L201.25486,212.3952L202.81497,214.79515L202.93498,216.8351
			L203.175,219.35504L202.45495,220.55501L199.45472,225.5949L200.89483,225.7149L204.37509,225.95489L205.81519,226.07489L208.33538,226.19489
			L213.73578,226.67488L221.65636,227.15487L223.33649,227.27486L224.53658,232.79474L221.53635,235.67467L218.41612,232.91474
			L216.25596,235.19468L220.21626,238.67461L219.01617,242.51452L217.21604,247.5544L216.97602,248.51438L215.29589,253.31427L
			217.45605,256.7942L227.89682,273.83381L226.2167,275.03378L218.53613,280.43366L214.09581,293.39337L210.73556,295.31333L206.77526,297.47328
			L197.29456,302.51316L193.33427,304.67311L188.53392,310.43298L187.45384,311.87295L177.13308,314.51289L174.85291,320.03277
			L169.93254,321.95272L170.05255,316.31285L170.17256,314.2729L165.13219,310.55298L158.5317,305.63309L156.25153,303.95313L155.05145,305.63309
			L151.93122,310.31299L148.09093,306.83306L147.6109,306.35308L147.01085,305.87309L144.85069,303.83313L146.77083,300.35321L
			148.21094,300.59321L150.3711,301.07319L152.65127,301.43319L153.97137,300.23321L157.21161,296.99329L158.29169,295.91331L157.69164,294.35335
			L156.13153,293.75336L154.4514,293.03338L152.65127,292.43339L150.13108,292.31339L149.41103,292.31339L149.051,292.1934L148.33095,292.1934
			L147.49089,292.1934L146.17079,292.0734L145.45074,292.0734L143.5306,292.0734L142.69053,291.9534L142.81054,291.11342L142.93055,289.31346
			L142.93055,287.99349L143.41059,277.31373L146.05078,276.23376L149.89107,274.67379L150.85114,275.87376L151.21116,276.35375
			L154.57141,272.99383L153.37132,271.31387L154.81143,269.51391L156.97159,266.99397L157.45162,266.51398L158.65171,265.07401
			L161.1719,262.31407L161.53192,261.83408L163.09204,260.03412L163.45207,259.67413L163.9321,255.95421L161.53192,255.83422L159.25176,255.59422
			L160.81187,253.91426L161.89195,252.83429L164.65215,249.95435L166.69231,247.9144L166.21227,243.83449L165.97225,242.03453L
			172.93277,238.9146L171.13263,236.87465L169.57252,234.5947L170.17256,231.83476L170.89262,230.1548L167.65238,229.07482L168.49244,232.43475
			L167.41236,232.79474L163.69208,227.27486L162.612,225.7149L161.41192,223.91494L163.9321,221.87499L165.61223,220.55501zM139.21028,255.71422
			L142.69053,256.91419L141.25043,259.31414L139.45029,262.31407L138.37021,261.2341L136.69009,259.43414L139.21028,255.71422z
			M185.65371,268.19394L187.45384,268.91392L185.05366,271.79386L184.2136,273.95381L185.5337,275.51377L185.77371,280.55366L186.37376,284.99356
			L187.81386,285.11356L187.69386,283.1936L187.57385,280.43366L186.61378,276.35375L187.33383,274.55379L186.73379,272.99383L
			189.614,269.9939L189.97402,269.03392L187.21382,265.554L188.53392,263.15405L185.5337,265.434L185.65371,268.19394zM189.37398,222.35497
			L189.37398,224.87492L189.37398,225.5949L193.57429,222.71497L192.3742,221.395L189.37398,222.35497zM206.53525,218.39506L204.61511,220.43502
			L203.77504,219.71503L205.9352,216.7151L206.53525,218.39506z"/>
	</g>
	<g id="Bern">
		<path class="CHBezirke" id="BE" d="
			M201.97491,203.75539L200.05477,204.59538L198.61466,205.19536L197.41457,205.79535L195.73445,206.51533L194.53436,206.99532
			L192.49421,207.23532L184.2136,207.8353L179.05322,208.19529L179.65326,207.23532L180.25331,206.27534L177.25309,202.55542L177.4931,201.35545
			L177.73312,199.67549L177.97314,198.11552L178.33316,196.67555L180.85335,195.11559L183.61355,193.31563L185.5337,194.39561L
			192.13418,190.4357L193.33427,187.79576L195.0144,188.87573L187.57385,194.7556L188.17389,195.71558L190.21404,195.95557L192.25419,195.11559
			L195.37442,193.91562L198.01462,191.75567L198.13463,191.15568L198.13463,190.3157L199.45472,190.67569L201.37487,186.47579L
			201.97491,185.03582L204.85512,179.63594L205.9352,178.07597L206.89527,176.63601L206.41524,175.79603L204.13507,177.47599L199.81475,181.07591
			L195.25441,184.91582L192.3742,186.59578L189.49399,188.39574L188.77394,190.1957L185.5337,191.51567L185.29368,188.39574L185.17367,186.83578
			L185.05366,185.39581L177.01307,180.71592L178.8132,177.71598L177.85313,177.95598L175.33294,178.55596L171.73268,179.51594L
			168.97247,180.11593L166.33228,180.83591L164.41214,181.3159L161.29191,182.03589L157.0916,183.11586L155.65149,183.47585L154.33139,178.55596
			L151.81121,169.79616L154.81143,167.27622L156.61156,173.03609L160.81187,169.07618L164.29213,165.71625L165.2522,164.87627L
			165.85224,164.27629L171.73268,167.27622L173.4128,164.75628L175.09293,162.35633L176.17301,160.91636L177.01307,159.71639L178.33316,157.67644
			L179.53325,156.11647L181.4534,153.11654L184.57363,152.99654L194.65437,152.27656L195.49443,147.95666L195.97447,145.9167L196.21448,144.83673
			L196.93454,141.5968L198.49465,141.7168L204.13507,142.07679L206.41524,142.19679L211.45561,142.55678L213.61577,142.67678L219.25619,143.03677
			L221.17633,139.67684L222.73644,139.67684L226.93675,139.55685L229.21692,139.43685L233.53724,139.31685L236.53746,139.19685
			L240.25774,138.95686L243.49798,138.83686L253.09868,136.31692L247.9383,135.59694L252.0186,131.75702L255.61887,135.47694L254.41878,136.55691
			L253.69873,137.1569L246.4982,141.95679L243.97801,143.51676L241.21781,145.43671L237.0175,148.31665L234.61732,149.87661L232.81719,151.07659
			L233.65725,153.83652L231.97713,154.43651L221.77637,158.03643L222.97646,160.19638L228.9769,170.39615L231.85712,170.03616L
			233.77726,164.39628L236.05743,164.27629L237.13751,164.15629L241.0978,163.7963L242.05787,168.47619L242.65791,171.47612L240.61776,171.83612
			L238.57761,172.31611L236.65747,172.6761L235.81741,172.79609L233.65725,173.27608L235.81741,177.71598L234.25729,177.71598L
			230.65703,178.07597L229.09691,178.07597L226.33671,178.31597L228.01683,184.67583L232.21714,183.83584L235.33737,183.11586L
			236.17744,186.83578L236.53746,188.15575L238.21759,188.03575L240.37775,187.79576L240.13773,185.6358L239.89771,183.71585L239.65769,181.1959
			L241.0978,180.47592L241.81785,180.11593L243.61798,179.27595L245.53813,178.43597L246.73821,175.67603L247.81829,172.79609L
			249.01838,170.15615L250.93852,169.67616L253.21869,169.31617L255.73888,168.71619L256.33892,172.31611L257.89904,172.31611L
			259.81918,172.19611L261.97934,172.07611L265.57961,171.83612L267.73977,171.71612L267.97978,170.51615L268.69984,168.2362L268.93985,167.39622
			L269.5399,165.35626L270.01993,163.5563L267.13972,160.91636L265.81962,159.71639L263.89948,157.91643L262.33937,156.59646L261.73932,155.51648
			L259.69917,152.15656L259.45915,151.67657L257.77903,148.79664L256.57894,146.75668L256.09891,145.7967L259.69917,145.31672L
			265.93963,144.23674L267.49975,143.99675L269.77992,142.67678L270.86,141.95679L278.90059,148.55664L280.70072,149.75662L283.58093,147.83666
			L286.34114,150.95659L291.02148,148.31665L291.62153,150.71659L292.46159,154.19651L293.18164,157.07645L296.30187,161.99634
			L299.3021,166.91623L299.54211,169.31617L299.78213,172.6761L300.14216,177.35599L298.34202,177.35599L298.22202,184.79582L298.10201,187.55576
			L298.10201,191.75567L302.78235,203.03541L308.18275,202.55542L311.18297,202.31543L309.86287,207.71531L308.54278,209.75526
			L299.66212,223.19496L294.50174,230.99478L298.10201,236.03466L308.9028,245.75445L310.58293,247.31441L314.3032,250.67433L323.7839,249.47436
			L326.78412,248.99437L329.78435,248.63438L332.06451,250.19434L334.70471,251.9943L338.78501,254.87424L351.50595,251.87431L
			357.6264,254.87424L363.74685,251.39432L369.98731,248.03439L372.74752,250.91433L374.18762,252.47429L381.62817,251.63431L382.70825,263.87404
			L374.90768,267.71395L376.94783,275.87376L370.94738,280.19367L362.66677,297.35328L357.50639,299.27324L353.66611,300.59321
			L350.7859,301.55318L344.18541,303.95313L334.70471,299.03324L316.9434,296.5133L307.22268,309.95299L294.74176,313.67291L283.34092,321.11274
			L279.98067,323.27269L278.90059,323.99268L274.70028,326.75261L263.17943,320.63275L258.85911,327.71259L256.93897,327.5926L
			252.85867,327.2326L252.97868,332.39249L244.81807,336.47239L243.01794,335.75241L238.93764,334.07245L236.89749,333.35247L228.37686,337.91236
			L224.53658,340.07231L217.69607,335.27242L204.25508,345.95218L200.4148,334.55244L202.93498,327.11261L200.65481,321.71273L
			206.05521,318.7128L206.77526,297.47328L210.73556,295.31333L214.09581,293.39337L218.53613,280.43366L226.2167,275.03378L227.89682,273.83381
			L217.45605,256.7942L215.29589,253.31427L216.97602,248.51438L217.21604,247.5544L219.01617,242.51452L220.21626,238.67461L216.25596,235.19468
			L218.41612,232.91474L221.53635,235.67467L224.53658,232.79474L223.33649,227.27486L221.65636,227.15487L213.73578,226.67488
			L208.33538,226.19489L205.81519,226.07489L204.37509,225.95489L200.89483,225.7149L199.45472,225.5949L202.45495,220.55501L203.175,219.35504
			L202.93498,216.8351L202.81497,214.79515L201.25486,212.3952L200.77482,211.67522L204.73511,209.03528L206.05521,208.0753L205.21515,207.23532
			L203.89505,205.79535L201.97491,203.75539zM277.34047,274.07381L281.30077,275.99376L287.06119,275.27378L288.5013,274.1938L
			290.42144,275.15378L291.98155,274.1938L292.34158,273.47382L290.18142,270.83388L288.14127,270.23389L282.14083,270.83388L280.94074,270.95388
			L279.14061,266.75397L271.82007,263.63404L267.73977,260.03412L264.85955,257.39418L263.77947,258.11417L263.41945,262.43407
			L268.33981,267.59395L274.58027,270.47389L274.22024,272.63384L277.34047,274.07381zM300.62219,268.67393L305.30254,269.39391
			L308.30276,267.23396L318.86354,260.03412L322.4638,258.35416L323.90391,258.47416L323.90391,255.83422L319.22357,254.75424L
			316.58337,255.35423L309.02281,261.47409L305.54256,264.47402L300.38217,268.19394L300.62219,268.67393zM183.85357,226.43488
			L186.13374,223.79494L187.21382,225.11491L185.05366,227.27486L183.85357,226.43488zM204.61511,220.43502L206.53525,218.39506
			L205.9352,216.7151L203.77504,219.71503L204.61511,220.43502zM189.37398,222.35497L192.3742,221.395L193.57429,222.71497L189.37398,225.5949
			L189.37398,224.87492L189.37398,222.35497zM273.26017,170.27615L271.82007,169.67616L270.73999,169.19618L269.77992,171.71612
			L271.94008,171.95611L273.26017,170.27615z"/>
	</g>
	<g id="Luzern">
		<path class="CHBezirke" id="LU" d="
			M340.10511,211.31522L339.38505,217.55508L328.82427,224.39493L326.90413,225.5949L326.4241,229.31482L323.7839,249.47436L314.3032,250.67433
			L310.58293,247.31441L308.9028,245.75445L298.10201,236.03466L294.50174,230.99478L299.66212,223.19496L308.54278,209.75526L
			309.86287,207.71531L311.18297,202.31543L308.18275,202.55542L302.78235,203.03541L298.10201,191.75567L298.10201,187.55576L
			298.22202,184.79582L298.34202,177.35599L300.14216,177.35599L299.78213,172.6761L299.54211,169.31617L299.3021,166.91623L296.30187,161.99634
			L293.18164,157.07645L292.46159,154.19651L301.34225,153.71653L305.18253,153.47653L311.30298,151.31658L309.62286,147.11667
			L316.34335,145.19672L317.30342,146.87668L318.26349,148.67664L318.26349,152.51655L324.02392,150.71659L324.74397,150.4766L
			326.30409,149.27663L327.8642,148.07665L331.70449,151.07659L332.78457,151.91657L334.10466,152.87654L334.94473,152.63655L337.22489,151.79657
			L341.3052,150.3566L342.14526,152.27656L338.54499,153.35653L339.9851,155.15649L341.06518,156.35647L341.54521,156.95645L345.50551,156.83646
			L345.86553,151.07659L347.90568,150.4766L348.38572,151.91657L348.86575,151.79657L349.58581,147.71666L349.10577,146.0367L350.42587,145.31672
			L353.18607,143.75675L358.46646,146.87668L359.54654,149.75662L359.90657,150.71659L360.86664,153.11654L361.7067,155.27649L
			362.06673,156.35647L362.90679,158.51642L363.14681,159.1164L364.3469,162.11634L365.30697,164.63628L367.46713,170.39615L367.82715,171.11613
			L368.30719,172.6761L370.22733,172.91609L374.42764,173.51608L375.86775,173.75607L375.86775,176.996L376.82782,177.116L383.54831,178.43597
			L386.0685,178.91596L386.30852,180.35592L384.86841,180.59592L376.82782,181.79589L372.26748,188.51574L374.18762,190.79569L
			368.66722,196.31556L367.46713,194.99559L364.22689,191.99566L361.10666,192.35565L363.86686,195.35558L365.42698,196.91555L
			364.94694,198.35552L365.787,202.19543L364.10688,203.27541L362.30675,200.99546L360.74663,201.83544L361.82671,203.6354L353.78612,204.83537
			L350.7859,205.19536L349.34579,209.99525L340.10511,211.31522zM351.74597,157.67644L351.50595,158.51642L351.14592,159.83639
			L353.42609,163.19631L355.34623,166.07625L355.94628,165.11627L356.3063,164.39628L355.46624,162.83632L354.98621,162.11634L
			354.14614,158.51642L353.18607,158.15643L351.74597,157.67644zM378.38793,189.47572L382.94827,192.83564L384.7484,194.27561L
			390.38882,198.47551L389.78878,202.07543L385.82848,204.35538L386.30852,202.55542L383.78833,198.23552L379.228,196.55556L374.30763,197.75553
			L373.22755,196.43556L377.30785,192.71564L378.38793,189.47572zM341.4252,172.79609L336.98488,169.19618L334.34468,167.03622
			L333.86465,167.39622L333.86465,168.83618L333.98466,171.47612L335.42476,172.6761L340.34513,177.116L342.26527,178.79596L342.86531,177.95598
			L344.18541,176.39601L341.4252,172.79609z"/>
	</g>
	<g id="Uri">
		<path class="CHBezirke" id="UR" d="
			M414.87063,267.83395L415.59068,291.35341L405.62994,290.27344L394.94916,289.07347L392.66899,299.87322L386.0685,303.23315L
			376.5878,292.43339L378.38793,281.51364L376.94783,275.87376L374.90768,267.71395L382.70825,263.87404L381.62817,251.63431L387.98864,250.79433
			L390.02879,235.55468L384.7484,233.63472L383.66832,222.83496L387.26859,221.395L395.06916,218.15507L399.26947,206.15534L401.30963,205.19536
			L402.50971,206.39533L400.70958,214.79515L400.22955,217.31509L402.50971,220.19502L402.14969,221.87499L402.14969,224.27493
			L403.94982,226.07489L405.0299,224.15493L406.71002,223.19496L406.47001,220.07503L404.54986,217.43509L405.86996,212.87519L
			408.27014,213.35518L415.11064,214.67515L418.83092,220.31502L422.6712,218.87505L433.35199,214.67515L434.91211,217.67508L439.23243,226.19489
			L451.83336,219.83503L454.59356,228.11484L442.47266,235.43468L443.55274,241.19455L429.99174,259.43414L417.39081,266.51398
			L414.87063,267.83395z"/>
	</g>
	<g id="Schwyz">
		<path class="CHBezirke" id="SZ" d="
			M414.63061,173.99607L416.91078,170.87614L415.8307,168.2362L413.91056,164.03629L418.5909,159.95638L419.67098,159.83639L429.63172,159.1164
			L430.47178,156.95645L432.1519,156.47646L430.23176,159.4764L431.55186,159.95638L436.71224,161.99634L439.71246,159.2364L446.55297,158.51642
			L450.87328,157.31644L451.35332,155.99647L454.47355,156.95645L455.79365,157.31644L454.11352,163.31631L455.55363,163.7963L
			460.83402,165.71625L455.07359,173.27608L454.59356,178.19597L454.35354,180.35592L453.03344,193.31563L445.23287,197.75553L
			453.27346,206.75533L456.5137,210.35525L455.1936,218.15507L451.83336,219.83503L439.23243,226.19489L434.91211,217.67508L433.35199,214.67515
			L422.6712,218.87505L418.83092,220.31502L415.11064,214.67515L408.27014,213.35518L405.86996,212.87519L404.54986,206.39533L
			404.06983,204.35538L400.10954,202.67542L396.8693,204.71537L393.86908,205.43536L391.22888,204.35538L385.82848,204.35538L389.78878,202.07543
			L390.38882,198.47551L384.7484,194.27561L382.94827,192.83564L378.38793,189.47572L379.58802,186.23579L378.98798,185.8758L374.18762,190.79569
			L372.26748,188.51574L376.82782,181.79589L384.86841,180.59592L383.18829,183.11586L386.66854,186.23579L390.50883,189.95571
			L392.30896,188.15575L391.4689,184.07584L397.46934,182.87587L398.66943,185.27581L400.70958,184.55583L403.7098,183.35586L409.71025,181.07591
			L414.63061,173.99607zM425.91144,173.03609L428.91166,178.79596L428.67165,180.59592L432.63194,184.55583L434.07204,182.99586
			L431.19183,181.07591L429.63172,170.63614L428.19161,170.03616L425.79143,171.35613L425.91144,173.03609z"/>
	</g>
	<g id="Obwalden">
		<path class="CHBezirke" id="OW" d="
			M360.86664,208.43529L361.10666,209.87526L356.90635,212.2752L358.58647,213.35518L360.3866,212.87519L358.46646,217.31509L365.54699,217.55508
			L364.58691,226.91487L363.38683,241.07455L369.98731,248.03439L363.74685,251.39432L357.6264,254.87424L351.50595,251.87431L
			338.78501,254.87424L334.70471,251.9943L332.06451,250.19434L329.78435,248.63438L326.78412,248.99437L323.7839,249.47436L326.4241,229.31482
			L326.90413,225.5949L328.82427,224.39493L339.38505,217.55508L340.10511,211.31522L349.34579,209.99525L360.86664,208.43529z
			M372.74752,250.91433L374.66766,245.27446L368.78722,229.43481L384.7484,233.63472L390.02879,235.55468L387.98864,250.79433L
			381.62817,251.63431L374.18762,252.47429L372.74752,250.91433zM344.18541,233.75472L346.22556,235.79467L347.78567,233.39472
			L351.50595,230.0348L351.74597,228.47484L352.10599,226.67488L350.54588,226.79487L348.62574,229.67481L345.14548,231.59477L
			344.18541,233.75472z"/>
	</g>
	<g id="Nidwalden">
		<path class="CHBezirke" id="NW" d="
			M381.14814,208.91528L389.18873,210.59524L392.42897,209.15527L399.26947,206.15534L395.06916,218.15507L387.26859,221.395L383.66832,222.83496
			L384.7484,233.63472L368.78722,229.43481L374.66766,245.27446L372.74752,250.91433L369.98731,248.03439L363.38683,241.07455L
			364.58691,226.91487L365.54699,217.55508L358.46646,217.31509L360.3866,212.87519L363.74685,210.59524L365.18696,209.63526L365.30697,207.47531
			L366.86708,206.75533L369.7473,202.43542L371.90746,202.55542L382.82826,203.03541L382.58824,204.11539L376.94783,206.03534L
			376.94783,207.23532L381.14814,208.91528zM353.78612,204.83537L361.82671,203.6354L362.30675,205.55535L361.34668,207.47531L
			364.22689,207.11532L364.10688,209.03528L361.10666,209.87526L360.86664,208.43529L349.34579,209.99525L350.7859,205.19536L353.78612,204.83537
			z"/>
	</g>
	<g id="Glarus">
		<path class="CHBezirke" id="GL" d="
			M460.83402,165.71625L467.07448,171.83612L469.59467,174.35606L471.99484,173.87607L474.03499,173.63608L475.23508,174.59605
			L480.39546,175.55603L483.75571,176.15602L486.99595,176.756L487.716,186.47579L485.19582,188.75573L483.03566,190.79569L485.43584,191.75567
			L490.83623,194.15561L494.4365,195.71558L496.47665,201.35545L496.47665,211.43522L496.59666,216.47511L496.59666,218.63506L
			490.71623,223.07496L483.6357,228.23484L481.11552,230.1548L480.27546,230.75478L470.31472,227.99485L469.23464,230.2748L466.11441,236.39466
			L454.83358,242.63452L450.87328,244.79447L447.51304,243.1145L443.55274,241.19455L442.47266,235.43468L454.59356,228.11484L
			451.83336,219.83503L455.1936,218.15507L456.5137,210.35525L453.27346,206.75533L445.23287,197.75553L453.03344,193.31563L454.35354,180.35592
			L454.59356,178.19597L455.07359,173.27608L460.83402,165.71625z"/>
	</g>
	<g id="Zug">
		<path class="CHBezirke" id="ZG" d="
			M394.94916,157.43644L398.54942,156.83646L402.74973,159.71639L404.42986,160.91636L406.83003,166.91623L410.55031,168.71619
			L415.8307,168.2362L416.91078,170.87614L414.63061,173.99607L409.71025,181.07591L403.7098,183.35586L400.70958,184.55583L398.66943,185.27581
			L397.46934,182.87587L391.4689,184.07584L387.98864,178.67596L389.66877,167.27622L384.50839,164.99627L381.50816,166.67623L
			381.74818,167.9962L383.54831,178.43597L376.82782,177.116L375.86775,176.996L375.86775,173.75607L375.74774,170.39615L374.42764,163.9163
			L373.10754,157.07645L374.66766,151.79657L374.90768,151.19658L375.50772,151.79657L376.82782,153.11654L379.82804,156.23647
			L383.06828,159.59639L386.42853,158.99641L387.74862,158.75641L394.94916,157.43644zM405.62994,178.67596L407.43008,181.3159
			L408.63017,178.67596L406.71002,175.55603L402.2697,174.23606L401.18962,174.35606L401.30963,176.996L405.62994,178.67596z"/>
	</g>
	<g id="Solothurn">
		<path class="CHBezirke" id="SO" d="
			M285.8611,132.47701L286.70116,132.597L288.5013,127.79711L291.98155,126.35714L293.30165,125.75716L298.34202,123.47721L299.3021,120.71727
			L300.38217,117.83734L303.3824,121.07726L306.86265,118.19733L308.06274,117.23735L309.86287,115.79738L310.58293,115.1974L308.42277,111.23749
			L309.86287,108.23755L312.38306,107.39757L313.10311,110.03751L314.42321,114.23742L311.66301,115.31739L316.46336,118.67732
			L319.82361,120.59727L320.30365,125.03717L319.46358,126.83713L319.10356,127.43712L317.78346,130.31705L316.34335,133.43698
			L315.02326,134.03697L311.30298,135.95693L308.30276,134.75695L306.50263,134.03697L304.70249,133.31699L304.10245,133.07699
			L302.78235,132.597L300.7422,137.99688L299.3021,139.67684L295.46181,143.87675L291.74154,147.95666L291.02148,148.31665L286.34114,150.95659
			L283.58093,147.83666L280.70072,149.75662L278.90059,148.55664L270.86,141.95679L269.77992,142.67678L267.49975,143.99675L265.93963,144.23674
			L259.69917,145.31672L256.09891,145.7967L256.57894,146.75668L257.77903,148.79664L259.45915,151.67657L259.69917,152.15656L
			261.73932,155.51648L262.33937,156.59646L263.89948,157.91643L265.81962,159.71639L267.13972,160.91636L270.01993,163.5563L269.5399,165.35626
			L268.93985,167.39622L268.69984,168.2362L267.97978,170.51615L267.73977,171.71612L265.57961,171.83612L261.97934,172.07611L
			259.81918,172.19611L257.89904,172.31611L256.33892,172.31611L255.73888,168.71619L253.21869,169.31617L250.93852,169.67616L
			249.01838,170.15615L247.81829,172.79609L246.73821,175.67603L245.53813,178.43597L243.61798,179.27595L241.81785,180.11593L
			241.0978,180.47592L239.65769,181.1959L239.89771,183.71585L240.13773,185.6358L240.37775,187.79576L238.21759,188.03575L236.53746,188.15575
			L236.17744,186.83578L235.33737,183.11586L232.21714,183.83584L228.01683,184.67583L226.33671,178.31597L229.09691,178.07597
			L230.65703,178.07597L234.25729,177.71598L235.81741,177.71598L233.65725,173.27608L235.81741,172.79609L236.65747,172.6761L
			238.57761,172.31611L240.61776,171.83612L242.65791,171.47612L242.05787,168.47619L241.0978,163.7963L237.13751,164.15629L236.05743,164.27629
			L233.77726,164.39628L231.85712,170.03616L228.9769,170.39615L222.97646,160.19638L221.77637,158.03643L231.97713,154.43651L
			233.65725,153.83652L232.81719,151.07659L234.61732,149.87661L237.0175,148.31665L241.21781,145.43671L243.97801,143.51676L246.4982,141.95679
			L253.69873,137.1569L254.41878,136.55691L255.61887,135.47694L252.0186,131.75702L250.69851,130.19706L249.37841,128.99708L247.21825,126.59714
			L243.97801,126.11715L243.01794,125.87715L238.57761,125.15717L237.97757,125.03717L235.57739,124.67718L240.01772,118.55732
			L244.09802,120.83727L247.9383,123.11722L248.41834,120.71727L249.13839,117.59734L255.85889,117.71734L254.77881,111.71747L
			258.13906,112.55746L260.65924,113.27744L261.4993,110.6375L262.69939,106.79759L259.57916,105.23762L260.17921,101.8777L264.37952,100.67772
			L266.41967,100.19774L268.33981,99.59775L270.98,101.15771L275.06031,103.43766L272.78014,108.11756L271.94008,109.91752L270.49997,112.79745
			L268.57983,116.63736L267.97978,117.95733L263.65946,117.83734L264.85955,124.19719L265.33959,126.83713L271.22002,125.27717
			L272.42011,124.91718L277.46048,126.95713L276.86044,131.03704L285.8611,132.47701zM246.13817,98.51777L247.69829,98.99776L249.2584,99.59775
			L249.2584,101.6377L249.37841,103.91765L249.37841,107.75756L244.21803,108.59755L243.25796,108.83754L239.17766,109.43753L238.21759,109.55752
			L236.89749,106.79759L238.4576,105.23762L233.41723,103.19767L235.21736,99.59775L240.49775,103.07767L242.17788,101.7577L243.37797,100.79772
			L246.13817,98.51777zM270.73999,169.19618L271.82007,169.67616L273.26017,170.27615L271.94008,171.95611L269.77992,171.71612
			L270.73999,169.19618zM233.41723,110.3975L235.81741,110.03751L237.61754,117.23735L228.61688,117.11735L227.77681,113.27744
			L233.41723,110.3975z"/>
	</g>
	<g id="Basel_Stadt">
		<path class="CHBezirke" id="BS" d="
			M252.49864,86.51804L257.419,80.15819L262.45938,82.31814L265.33959,78.59822L268.2198,79.5582L270.25995,77.63825L271.58005,78.83822
			L269.29988,80.99817L270.25995,82.19814L271.94008,84.35809L267.01971,85.43807L263.77947,86.15805L261.3793,86.63804L262.8194,90.47795
			L258.25907,94.91785L257.65902,94.19787L256.45893,92.27791L253.81874,88.438L252.49864,86.51804z"/>
	</g>
	<g id="Basel_Land">
		<path class="CHBezirke" id="BL" d="
			M260.17921,101.8777L259.57916,105.23762L262.69939,106.79759L261.4993,110.6375L260.65924,113.27744L258.13906,112.55746L254.77881,111.71747
			L255.85889,117.71734L249.13839,117.59734L248.41834,120.71727L247.9383,123.11722L244.09802,120.83727L240.01772,118.55732L
			235.57739,124.67718L232.81719,122.15724L227.05676,117.11735L225.25663,116.99736L224.41657,116.87736L219.4962,112.91745L220.21626,111.35748
			L227.77681,113.27744L228.61688,117.11735L237.61754,117.23735L235.81741,110.03751L233.41723,110.3975L236.89749,106.79759L
			238.21759,109.55752L239.17766,109.43753L243.25796,108.83754L244.21803,108.59755L249.37841,107.75756L249.37841,103.91765L
			249.2584,101.6377L249.2584,99.59775L247.69829,98.99776L246.13817,98.51777L244.57806,95.03785L248.29833,95.51784L249.13839,93.35789
			L247.33826,92.9979L244.93808,92.51791L243.97801,90.47795L245.53813,89.75797L252.49864,86.51804L253.81874,88.438L256.45893,92.27791
			L257.65902,94.19787L258.25907,94.91785L262.8194,90.47795L261.3793,86.63804L263.77947,86.15805L265.57961,87.95801L269.65991,91.91792
			L272.42011,91.07794L274.82029,90.35796L278.42055,92.15792L281.18076,93.47789L285.38107,95.51784L285.8611,98.99776L287.30121,99.23776
			L289.34136,99.71775L291.02148,94.91785L292.22157,91.55793L294.86177,91.43793L296.54189,93.71788L297.62197,95.15785L300.02215,98.27778
			L300.50218,98.87777L301.58226,100.43773L302.30232,101.39771L308.54278,101.8777L309.14282,104.39764L309.86287,108.23755L308.42277,111.23749
			L310.58293,115.1974L309.86287,115.79738L308.06274,117.23735L306.86265,118.19733L303.3824,121.07726L300.38217,117.83734L299.3021,120.71727
			L298.34202,123.47721L293.30165,125.75716L291.98155,126.35714L288.5013,127.79711L286.70116,132.597L285.8611,132.47701L276.86044,131.03704
			L277.46048,126.95713L272.42011,124.91718L271.22002,125.27717L265.33959,126.83713L264.85955,124.19719L263.65946,117.83734
			L267.97978,117.95733L268.57983,116.63736L270.49997,112.79745L271.94008,109.91752L272.78014,108.11756L275.06031,103.43766
			L270.98,101.15771L268.33981,99.59775L266.41967,100.19774L264.37952,100.67772L260.17921,101.8777z"/>
	</g>
	<g id="Schaffhausen">
		<path class="CHBezirke" id="SH" d="
			M396.02924,61.9186L393.38904,62.87858L390.50883,63.95855L390.98886,67.79847L386.54854,68.39845L382.46823,68.99844L378.98798,65.99851
			L372.5075,60.47863L374.30763,58.19868L380.06806,50.87885L381.50816,42.35904L388.46868,40.79908L395.30918,39.11912L397.22932,38.63913
			L395.18917,33.23925L403.10976,34.43922L402.98975,38.87912L406.22999,43.43902L407.31007,41.15907L407.7901,40.07909L407.7901,34.19923
			L410.4303,35.99919L412.47045,37.43915L412.59046,39.23911L412.83048,43.55902L414.5106,42.95903L418.35088,41.51906L419.79099,44.039
			L420.63105,45.35897L416.79077,47.39893L417.39081,50.75885L420.03101,52.07882L418.95093,56.99871L417.39081,57.3587L414.5106,52.55881
			L408.87018,58.43868L406.71002,57.95869L404.30985,57.4787L404.18984,60.35864L401.66965,61.67861L397.70936,63.95855L396.02924,61.9186
			zM397.10932,82.19814L395.30918,85.55807L394.46912,86.87804L392.30896,79.4382L393.38904,78.71822L396.8693,76.31827L400.58957,76.07828
			L399.74951,77.51825L397.10932,82.19814zM428.0716,55.19875L424.71135,53.99878L424.71135,51.59883L428.43163,48.4789L429.87173,47.27893
			L432.39192,52.9188L436.47222,53.63879L439.35243,53.99878L439.83247,56.39873L436.47222,59.15866L439.95248,64.31855L439.11242,65.03853
			L437.19227,66.71849L434.43207,61.31861L430.23176,60.11864L429.15168,59.87865L430.7118,56.15873L428.0716,55.19875z"/>
	</g>
	<g id="Appenzell_ARh">
		<path class="CHBezirke" id="AR" d="
			M501.39701,117.35735L505.11729,116.87736L507.15744,116.63736L519.39834,114.9574L520.59843,109.19753L523.35864,109.19753L
			524.55872,109.19753L532.83934,105.35762L533.07935,103.55766L533.31937,102.35769L533.43938,101.8777L536.31959,102.11769L537.27966,102.11769
			L539.0798,102.35769L540.87993,102.47768L542.32004,103.43766L547.84044,107.75756L545.44027,108.47755L539.31981,107.75756L
			538.23973,109.31753L541.59998,114.35742L539.55983,115.67739L537.99972,116.75736L536.55961,109.67752L534.03942,110.3975L531.87926,115.79738
			L531.15921,117.95733L530.31915,125.87715L530.07913,127.07713L527.79896,126.35714L522.03854,124.55718L519.75837,123.7172L
			514.47798,122.15724L508.71755,120.23728L508.71755,125.87715L508.71755,127.79711L503.31716,133.07699L505.95735,140.99681L
			508.83756,149.63662L505.71733,148.79664L500.43694,147.35667L488.55607,144.11674L489.51614,137.2769L490.11618,133.55698L490.47621,131.03704
			L487.716,127.31712L486.15589,125.15717L488.55607,121.91724L489.75615,120.35728L491.91631,117.59734L501.39701,117.35735z"/>
	</g>
	<g id="Appenzell_IRh">
		<path class="CHBezirke" id="AI" d="
			M522.03854,124.55718L527.79896,126.35714L530.07913,127.07713L529.83911,129.35708L529.11906,135.83693L528.51902,140.63682
			L515.43805,151.43658L511.95779,150.5966L508.83756,149.63662L505.95735,140.99681L503.31716,133.07699L508.71755,127.79711L
			508.71755,125.87715L508.71755,120.23728L514.47798,122.15724L519.75837,123.7172L522.03854,124.55718zM539.31981,107.75756L
			545.44027,108.47755L544.24018,112.67745L541.59998,114.35742L538.23973,109.31753L539.31981,107.75756zM534.03942,110.3975L
			536.55961,109.67752L537.99972,116.75736L531.15921,117.95733L531.87926,115.79738L534.03942,110.3975z"/>
	</g>
	<g id="St_Gallen">
		<path class="CHBezirke" id="SG" d="
			M508.47754,93.95788L509.43761,95.99783L510.51769,98.75777L515.31804,100.07774L518.07825,96.71781L520.35841,94.07787L522.27856,95.15785
			L521.91853,96.71781L524.79874,98.87777L525.87882,97.3178L526.9589,99.11776L531.27922,98.99776L533.79941,98.99776L538.11973,94.79786
			L541.35996,99.59775L543.1601,102.23769L544.84022,101.39771L552.04075,104.27764L551.92074,106.43759L551.80074,112.07747L551.68073,115.0774
			L554.80096,117.35735L552.6408,122.03724L547.96045,122.75723L539.79985,136.19692L536.91964,140.63682L535.1195,143.51676L532.47931,151.43658
			L529.83911,158.63641L531.99927,168.1162L533.91942,175.91602L530.55917,181.5559L527.91897,185.7558L530.43916,190.1957L531.0392,191.27568
			L531.63925,192.35565L534.51946,197.27554L538.23973,203.99539L537.51968,205.31536L533.91942,211.55522L528.279,221.275L526.71888,224.03494
			L525.27878,226.67488L510.39768,222.47497L499.23685,219.47504L496.59666,218.63506L496.59666,216.47511L496.47665,211.43522
			L496.47665,201.35545L494.4365,195.71558L490.83623,194.15561L485.43584,191.75567L483.03566,190.79569L485.19582,188.75573L
			487.716,186.47579L486.99595,176.756L494.79653,177.35599L501.87705,176.51601L502.71711,176.27602L502.95713,173.87607L490.71623,174.11606
			L476.07514,172.31611L474.03499,173.63608L471.99484,173.87607L469.59467,174.35606L467.07448,171.83612L460.83402,165.71625
			L455.55363,163.7963L454.11352,163.31631L455.79365,157.31644L454.47355,156.95645L451.35332,155.99647L451.83336,154.9165L447.75305,154.6765
			L442.83269,156.59646L439.23243,155.51648L437.19227,156.95645L434.55208,155.75648L432.51193,154.6765L432.99196,152.63655L
			430.23176,152.15656L432.03189,150.2366L435.87218,150.4766L440.79254,150.71659L442.83269,149.87661L450.15323,147.35667L454.95359,138.47687
			L456.87373,134.75695L450.75328,123.11722L454.71357,119.75729L458.43384,110.3975L461.67408,109.19753L464.19427,108.23755L
			465.51437,107.75756L466.47444,107.39757L464.79431,106.1976L462.75416,104.87763L462.39413,104.51764L459.87395,102.83768L461.79409,100.55773
			L464.31428,97.55779L469.47466,98.51777L472.95491,98.99776L477.99529,99.95774L480.8755,95.87783L483.39569,97.4378L488.19604,100.43773
			L492.15633,99.95774L493.1164,99.83774L504.15722,98.75777L502.47709,95.63784L501.51702,93.83788L499.95691,91.19794L506.43739,89.15798
			L508.47754,93.95788zM520.59843,109.19753L519.39834,114.9574L507.15744,116.63736L505.11729,116.87736L501.39701,117.35735L
			491.91631,117.59734L489.75615,120.35728L488.55607,121.91724L486.15589,125.15717L487.716,127.31712L490.47621,131.03704L490.11618,133.55698
			L489.51614,137.2769L488.55607,144.11674L500.43694,147.35667L505.71733,148.79664L508.83756,149.63662L511.95779,150.5966L515.43805,151.43658
			L528.51902,140.63682L529.11906,135.83693L529.83911,129.35708L530.07913,127.07713L530.31915,125.87715L531.15921,117.95733
			L537.99972,116.75736L539.55983,115.67739L541.59998,114.35742L544.24018,112.67745L545.44027,108.47755L547.84044,107.75756
			L542.32004,103.43766L540.87993,102.47768L539.0798,102.35769L537.27966,102.11769L536.31959,102.11769L533.43938,101.8777L533.31937,102.35769
			L533.07935,103.55766L532.83934,105.35762L524.55872,109.19753L523.35864,109.19753L520.59843,109.19753z"/>
	</g>
	<g id="Graubuenden">
		<path class="CHBezirke" id="GR" d="
			M628.96643,344.15222L634.84687,352.91202L629.68648,359.51187L619.72575,362.03182L616.12548,359.75187L618.04563,355.67196
			L608.44492,348.71212L602.20446,328.79257L588.16342,333.95245L581.32291,336.47239L575.20246,338.75234L567.88192,339.59232
			L567.40189,347.87214L561.76147,346.07218L553.72088,349.5521L543.04009,346.91216L539.31981,340.91229L534.87949,333.59246L
			530.07913,331.43251L529.83911,322.7927L529.5991,306.35308L518.67829,310.19299L516.75815,306.47307L515.07802,303.23315L503.31716,307.19306
			L499.95691,317.39283L502.71711,333.71246L504.75726,344.9922L501.51702,355.55196L499.47687,362.39181L495.87661,363.11179L
			493.59644,368.15168L490.11618,375.59151L487.11596,375.71151L483.27568,372.47158L476.43517,366.83171L473.19493,355.79196L
			471.27479,350.15209L471.87483,347.51215L472.7149,343.43224L473.07492,341.87227L473.79498,338.75234L475.59511,329.99254L474.75505,320.03277
			L473.91499,311.27296L468.39458,308.03304L468.51459,287.99349L458.19382,285.35355L455.91366,281.39364L448.11308,289.43346
			L437.79232,293.87336L431.07182,293.15337L425.67142,292.55339L418.95093,291.8334L415.59068,291.35341L414.87063,267.83395L
			417.39081,266.51398L429.99174,259.43414L443.55274,241.19455L447.51304,243.1145L450.87328,244.79447L454.83358,242.63452L466.11441,236.39466
			L469.23464,230.2748L470.31472,227.99485L480.27546,230.75478L481.11552,230.1548L483.6357,228.23484L490.71623,223.07496L496.59666,218.63506
			L499.23685,219.47504L510.39768,222.47497L525.27878,226.67488L526.71888,224.03494L528.279,221.275L533.91942,211.55522L537.51968,205.31536
			L538.23973,203.99539L534.51946,197.27554L531.63925,192.35565L531.0392,191.27568L530.43916,190.1957L537.27966,189.23572L539.91986,188.87573
			L544.84022,188.15575L550.96067,187.31577L559.12128,186.11579L570.52212,191.51567L579.64279,195.83557L583.8431,193.55563L
			588.04341,195.83557L586.72331,211.91521L593.68383,214.07516L610.00503,219.35504L619.48573,230.0348L620.20578,230.75478L628.60641,227.75485
			L631.00658,226.91487L638.32712,224.27493L639.16718,211.31522L644.56758,211.79521L650.08799,212.1552L651.64811,198.35552L
			661.24881,196.19557L665.20911,203.99539L673.84975,208.31529L673.84975,208.43529L672.88967,232.07475L667.00924,239.99458L
			669.64944,247.43441L663.64899,252.1143L666.5292,254.99424L663.16896,268.43393L664.36905,271.91385L671.08954,271.07387L677.69003,276.59375
			L676.96998,283.55359L672.40964,293.99335L658.96865,289.55346L656.20844,292.31339L654.52832,291.23342L646.00769,285.35355
			L643.84753,286.79352L642.0474,276.23376L621.52588,279.71368L613.6053,293.99335L613.84532,307.43305L613.84532,314.99288L619.72575,319.19279
			L627.04629,316.79284L632.20667,321.83273L631.72664,326.39262L626.92628,328.19258L624.5261,339.71232L628.96643,344.15222z
			"/>
	</g>
	<g id="Aargau">
		<path class="CHBezirke" id="AG" d="
			M320.30365,125.03717L319.82361,120.59727L316.46336,118.67732L311.66301,115.31739L314.42321,114.23742L313.10311,110.03751
			L312.38306,107.39757L309.86287,108.23755L309.14282,104.39764L308.54278,101.8777L302.30232,101.39771L301.58226,100.43773L
			300.50218,98.87777L300.02215,98.27778L297.62197,95.15785L296.54189,93.71788L294.86177,91.43793L292.22157,91.55793L291.02148,94.91785
			L289.34136,99.71775L287.30121,99.23776L285.8611,98.99776L285.38107,95.51784L281.18076,93.47789L278.42055,92.15792L274.82029,90.35796
			L279.62064,89.03799L286.82117,86.87804L290.18142,80.63818L292.94163,80.51818L301.22224,80.63818L304.10245,85.31807L306.50263,89.03799
			L309.50285,86.87804L310.82295,86.87804L317.18342,86.87804L321.86376,86.87804L326.66412,86.87804L329.30431,86.99803L330.98443,81.71815
			L333.38461,80.75817L338.42498,78.83822L341.54521,75.83829L344.42543,73.19835L346.46558,74.9983L347.54566,76.07828L352.94606,75.59829
			L356.78634,75.2383L361.22667,80.39818L364.10688,83.51811L367.1071,83.03812L372.02746,82.07814L374.42764,83.03812L376.34778,83.8781
			L375.98776,85.43807L375.2677,88.558L373.58758,90.11796L373.10754,90.59795L372.62751,91.07794L372.02746,91.67793L371.54743,92.15792
			L367.34712,96.11783L367.70714,101.99769L367.82715,102.71768L369.02724,104.75763L371.66744,108.71754L370.46735,111.83747L
			370.22733,112.67745L369.8673,113.63743L367.94716,119.03731L367.82715,119.6373L372.62751,120.47728L373.58758,123.9572L373.70759,124.79718
			L374.06761,126.23715L374.42764,127.31712L374.78767,128.99708L375.2677,130.91704L375.86775,133.31699L377.54787,133.43698L
			380.54809,133.79698L379.228,136.55691L377.54787,140.03683L374.90768,141.11681L371.78745,142.31678L372.02746,143.15676L373.46757,146.99668
			L374.90768,151.19658L374.66766,151.79657L373.10754,157.07645L374.42764,163.9163L375.74774,170.39615L375.86775,173.75607L
			374.42764,173.51608L370.22733,172.91609L368.30719,172.6761L367.82715,171.11613L367.46713,170.39615L365.30697,164.63628L364.3469,162.11634
			L363.14681,159.1164L362.90679,158.51642L362.06673,156.35647L361.7067,155.27649L360.86664,153.11654L359.90657,150.71659L359.54654,149.75662
			L358.46646,146.87668L353.18607,143.75675L350.42587,145.31672L349.10577,146.0367L348.86575,145.19672L346.8256,137.87688L345.74552,136.55691
			L344.78545,137.1569L345.26549,141.4768L345.74552,145.07672L347.90568,150.4766L345.86553,151.07659L345.50551,156.83646L341.54521,156.95645
			L341.06518,156.35647L339.9851,155.15649L338.54499,153.35653L342.14526,152.27656L341.3052,150.3566L337.22489,151.79657L334.94473,152.63655
			L334.10466,152.87654L332.78457,151.91657L331.70449,151.07659L327.8642,148.07665L326.30409,149.27663L324.74397,150.4766L324.02392,150.71659
			L318.26349,152.51655L318.26349,148.67664L317.30342,146.87668L316.34335,145.19672L309.62286,147.11667L311.30298,151.31658
			L305.18253,153.47653L301.34225,153.71653L292.46159,154.19651L291.62153,150.71659L291.02148,148.31665L291.74154,147.95666
			L295.46181,143.87675L299.3021,139.67684L300.7422,137.99688L302.78235,132.597L304.10245,133.07699L304.70249,133.31699L306.50263,134.03697
			L308.30276,134.75695L311.30298,135.95693L315.02326,134.03697L316.34335,133.43698L317.78346,130.31705L319.10356,127.43712
			L319.46358,126.83713L320.30365,125.03717z"/>
	</g>
	<g id="Thurgau">
		<path class="CHBezirke" id="TG" d="
			M516.1581,87.83801L520.83845,91.91792L520.35841,94.07787L518.07825,96.71781L515.31804,100.07774L510.51769,98.75777L509.43761,95.99783
			L508.47754,93.95788L506.43739,89.15798L499.95691,91.19794L501.51702,93.83788L502.47709,95.63784L504.15722,98.75777L493.1164,99.83774
			L492.15633,99.95774L488.19604,100.43773L483.39569,97.4378L480.8755,95.87783L477.99529,99.95774L472.95491,98.99776L469.47466,98.51777
			L464.31428,97.55779L461.79409,100.55773L459.87395,102.83768L462.39413,104.51764L462.75416,104.87763L464.79431,106.1976L466.47444,107.39757
			L465.51437,107.75756L464.19427,108.23755L461.67408,109.19753L458.43384,110.3975L454.71357,119.75729L450.75328,123.11722L
			444.15279,117.83734L448.71313,111.35748L443.79276,106.3176L441.87262,104.39764L441.99263,96.23782L442.23265,91.19794L439.47244,89.63797
			L438.99241,89.27798L433.95204,86.27805L437.5523,83.03812L435.51215,82.43814L431.91188,81.23816L428.79165,80.27819L424.23132,78.71822
			L422.07116,78.11823L422.07116,72.83835L427.71157,74.27832L429.99174,74.75831L432.87196,68.51845L431.19183,66.11851L428.67165,62.87858
			L424.35133,66.3585L421.83114,68.27846L419.79099,68.03846L417.51082,67.79847L413.31051,62.1586L411.7504,60.23864L410.67032,58.79867
			L415.47067,57.7187L417.39081,57.3587L418.95093,56.99871L429.15168,59.87865L430.23176,60.11864L434.43207,61.31861L437.19227,66.71849
			L439.11242,65.03853L442.83269,66.83849L447.033,65.99851L450.39325,64.43854L457.8338,60.71863L459.87395,59.75865L463.83424,59.99864
			L466.95447,60.11864L470.31472,60.23864L471.15478,61.55861L474.51503,61.7986L477.27523,62.1586L479.43539,61.67861L481.59555,62.75858
			L487.11596,65.63852L489.0361,66.59849L495.39657,69.95842L497.67674,71.27839L501.75704,74.15832L504.99728,76.67827L508.83756,78.71822
			L512.31782,80.63818L512.55784,83.63811L512.55784,84.83808L516.1581,87.83801zM521.91853,96.71781L522.27856,95.15785L525.87882,97.3178
			L524.79874,98.87777L521.91853,96.71781z"/>
	</g>
	<g id="Ticino">
		<path class="CHBezirke" id="TI" d="
			M476.43517,366.83171L483.27568,372.47158L487.11596,375.71151L475.59511,386.15127L476.31516,389.2712L477.51525,394.31109L
			475.83513,395.39106L474.39502,396.35104L471.15478,398.51099L467.19449,401.15093L466.83446,402.11091L465.51437,405.59083L
			466.95447,407.27079L467.91454,408.35077L464.91432,410.87071L463.2342,411.4707L461.55407,411.95069L457.59378,411.11071L456.75372,413.39066
			L458.31383,414.47063L458.31383,415.43061L458.31383,417.23057L457.35376,421.07048L458.07382,421.31048L457.8338,422.03046L
			456.39369,422.51045L455.55363,424.9104L453.27346,427.43034L452.31339,428.63031L449.7932,426.35036L450.63327,423.11044L449.91321,419.63052
			L449.7932,418.31055L450.03322,417.59056L451.71335,414.23064L450.99329,413.15066L449.07315,414.71063L449.31317,417.23057L
			448.23309,420.3505L445.95292,420.2305L445.83291,418.31055L444.63282,418.67054L444.2728,419.27052L442.9527,418.55054L438.51237,416.0306
			L432.63194,412.67067L434.19205,410.75072L435.03212,409.79074L437.5523,406.67081L438.99241,404.99085L440.43251,403.19089L
			443.55274,399.35097L442.83269,396.59104L435.87218,391.19116L434.7921,391.91114L433.23198,392.99112L428.43163,390.47117L429.99174,389.03121
			L431.55186,387.47124L434.07204,385.43129L436.71224,383.27134L439.35243,382.31136L441.99263,381.47138L442.47266,378.95143
			L442.83269,377.27147L441.15257,376.0715L439.35243,374.75153L436.2322,376.43149L434.91211,376.55149L435.51215,379.55142L434.07204,380.75139
			L432.75195,382.07136L429.87173,380.15141L425.91144,381.35138L423.39126,384.23132L419.79099,391.31116L412.59046,386.87126
			L407.43008,387.71124L406.10998,380.6314L402.14969,375.59151L395.5492,367.1917L385.46846,361.79182L380.18807,349.6721L385.10843,341.03229
			L385.34845,333.35247L384.62839,318.4728L374.30763,318.11281L374.30763,309.35301L386.0685,303.23315L392.66899,299.87322L394.94916,289.07347
			L405.62994,290.27344L415.59068,291.35341L418.95093,291.8334L425.67142,292.55339L431.07182,293.15337L437.79232,293.87336L
			448.11308,289.43346L455.91366,281.39364L458.19382,285.35355L468.51459,287.99349L468.39458,308.03304L473.91499,311.27296L
			474.75505,320.03277L475.59511,329.99254L473.79498,338.75234L473.07492,341.87227L472.7149,343.43224L471.87483,347.51215L471.27479,350.15209
			L473.19493,355.79196L476.43517,366.83171zM461.19405,419.99051L461.31406,415.6706L468.15456,411.5907L468.7546,413.15066L464.6743,415.55061
			L466.83446,423.59043L467.67452,426.59036L469.23464,427.19034L473.55496,429.1103L477.51525,430.79026L478.71534,431.39025L
			473.91499,439.55006L472.23486,442.43L470.43473,445.42993L470.31472,448.90985L464.43429,449.26985L464.6743,446.9899L458.79387,445.42993
			L457.35376,445.06994L452.4334,447.70988L452.55341,445.18994L456.39369,440.15005L454.83358,435.71015L453.15345,431.27025L
			452.79343,430.31027L457.47377,425.27039L460.35398,427.43034L460.95403,431.39025L461.55407,431.87024L462.03411,430.19028L
			462.51414,429.1103L460.83402,426.59036L459.39391,424.5504L459.51392,422.87044L458.67386,422.03046L458.79387,421.31048L459.51392,421.43047
			L459.87395,419.63052L461.19405,419.99051z"/>
	</g>
	<g id="Vaud">
		<path class="CHBezirke" id="VD" d="
			M165.61223,352.19204L162.25198,345.47219L157.93166,341.75228L154.93144,339.11234L153.97137,336.47239L151.6912,330.95252L
			160.45184,330.83252L162.13197,328.07258L161.05189,325.43264L154.33139,320.51276L150.85114,317.87282L147.97092,315.71286L
			145.21072,315.23287L143.05056,314.87288L141.25043,314.51289L139.81032,314.2729L136.09005,311.75295L135.00997,311.03297L131.76973,311.63296
			L130.56964,310.91297L128.88951,309.95299L125.28925,307.91304L123.96915,307.79304L120.36889,307.67305L112.4483,304.79311L
			108.368,306.83306L105.24777,306.83306L101.88752,304.67311L97.92723,308.03304L96.72714,310.19299L90.36667,314.0329L85.56632,316.79284
			L84.12621,316.31285L82.08606,315.47287L78.12577,316.19285L73.56543,319.91277L71.64529,322.07272L70.20518,323.63269L67.20496,329.87254
			L66.72493,330.95252L62.88464,331.7925L59.76441,335.87241L57.60425,338.51235L53.04392,336.2324L52.08384,336.59239L54.84405,340.7923
			L56.76419,341.51228L55.92413,344.39222L53.64396,347.51215L52.68389,348.71212L51.4838,350.51208L46.92346,348.59212L44.88331,345.83218
			L45.84338,344.39222L47.28349,342.23226L49.56366,338.75234L51.4838,335.75241L49.08362,334.07245L36.24268,324.95266L38.40283,321.47273
			L39.2429,320.15276L37.80279,314.63289L40.08296,311.51296L50.1637,298.07326L50.04369,297.95327L43.56322,291.47341L59.52439,277.43373
			L72.48535,266.15398L82.20607,258.95415L88.32652,254.51425L91.56676,252.1143L92.64684,251.27432L93.60691,244.43448L94.92701,234.4747
			L104.64773,233.03473L110.52816,230.2748L111.72825,229.79481L113.52838,228.95482L115.92856,227.87485L118.20873,226.79487L
			119.52882,226.19489L122.76906,223.91494L125.04923,222.35497L132.36977,217.31509L132.48978,218.27507L133.44985,222.95496L
			134.28991,226.43488L134.52993,227.75485L135.00997,230.2748L137.41014,230.87478L136.09005,233.27473L131.88974,235.67467L129.84959,238.19462
			L127.68943,239.27459L127.08938,240.47456L121.68898,243.71449L120.24888,246.35443L120.36889,246.95442L121.929,248.63438L123.60913,248.51438
			L132.00975,244.31448L136.57008,245.15446L139.09027,243.83449L140.65038,244.91446L141.61045,245.51445L140.05034,247.43441
			L140.77039,247.7944L141.25043,248.03439L143.6506,249.23437L145.81076,250.31434L146.2908,250.55434L150.01107,250.31434L152.29124,250.07435
			L153.61134,250.07435L154.69142,249.95435L159.49177,249.59436L159.97181,249.59436L160.45184,248.63438L162.85202,244.67447
			L159.37177,243.71449L159.37177,240.83456L159.37177,238.55461L161.1719,236.39466L162.73201,234.4747L160.45184,231.11478L159.37177,229.55481
			L157.69164,227.03487L161.41192,223.91494L162.612,225.7149L163.69208,227.27486L167.41236,232.79474L168.49244,232.43475L167.65238,229.07482
			L170.89262,230.1548L170.17256,231.83476L169.57252,234.5947L171.13263,236.87465L172.93277,238.9146L165.97225,242.03453L166.21227,243.83449
			L166.69231,247.9144L164.65215,249.95435L161.89195,252.83429L160.81187,253.91426L159.25176,255.59422L161.53192,255.83422L
			163.9321,255.95421L163.45207,259.67413L163.09204,260.03412L161.53192,261.83408L161.1719,262.31407L158.65171,265.07401L157.45162,266.51398
			L156.97159,266.99397L154.81143,269.51391L153.37132,271.31387L154.57141,272.99383L151.21116,276.35375L150.85114,275.87376
			L149.89107,274.67379L146.05078,276.23376L143.41059,277.31373L142.93055,287.99349L142.93055,289.31346L142.81054,291.11342
			L142.69053,291.9534L143.5306,292.0734L145.45074,292.0734L146.17079,292.0734L147.49089,292.1934L148.33095,292.1934L149.051,292.1934
			L149.41103,292.31339L150.13108,292.31339L152.65127,292.43339L154.4514,293.03338L156.13153,293.75336L157.69164,294.35335L
			158.29169,295.91331L157.21161,296.99329L153.97137,300.23321L152.65127,301.43319L150.3711,301.07319L148.21094,300.59321L146.77083,300.35321
			L144.85069,303.83313L147.01085,305.87309L147.6109,306.35308L148.09093,306.83306L151.93122,310.31299L155.05145,305.63309L
			156.25153,303.95313L158.5317,305.63309L165.13219,310.55298L170.17256,314.2729L170.05255,316.31285L169.93254,321.95272L174.85291,320.03277
			L177.13308,314.51289L187.45384,311.87295L188.53392,310.43298L193.33427,304.67311L197.29456,302.51316L206.77526,297.47328
			L206.05521,318.7128L200.65481,321.71273L202.93498,327.11261L200.4148,334.55244L204.25508,345.95218L201.25486,348.35213L200.4148,350.39208
			L194.77438,363.59178L190.57407,364.19177L185.89372,372.47158L183.13352,373.19156L176.77305,374.75153L173.29279,367.67169
			L172.69275,366.35172L169.21249,359.51187L168.73246,358.5519L166.33228,353.752L165.61223,352.19204zM178.8132,222.71497L180.73334,223.91494
			L184.93365,222.23498L185.77371,223.31495L186.13374,223.79494L183.85357,226.43488L182.8935,225.5949L182.65348,228.83483L182.41347,231.59477
			L181.33339,232.43475L179.41324,233.99471L177.37309,235.67467L176.17301,233.75472L172.93277,228.23484L174.49288,226.79487
			L170.53259,222.59497L170.05255,221.99498L167.29235,219.11505L170.17256,215.75512L172.21271,214.07516L178.45317,209.03528
			L181.09337,214.31516L182.05344,216.35511L180.97336,217.55508L180.01329,218.27507L178.45317,219.47504L177.73312,221.99498
			L178.8132,222.71497zM149.17101,260.27412L151.21116,261.35409L152.65127,262.07408L155.05145,257.87417L155.7715,256.5542L154.09138,254.99424
			L153.37132,254.39425L152.65127,253.79426L150.49111,251.87431L149.17101,253.91426L147.97092,255.59422L146.05078,258.71415
			L142.81054,259.07414L144.61068,260.8741L145.21072,261.47409L147.01085,259.19414L147.49089,259.55413L149.17101,260.27412z
			M139.45029,262.31407L141.25043,259.31414L142.69053,256.91419L139.21028,255.71422L136.69009,259.43414L138.37021,261.2341L
			139.45029,262.31407zM64.56477,283.67359L74.76552,275.63377L75.72559,273.35382L75.00554,272.87383L64.32475,281.39364L62.76463,283.43359
			L63.36468,284.75356L64.56477,283.67359z"/>
	</g>
	<g id="Valais">
		<path class="CHBezirke" id="VS" d="
			M339.38505,349.07211L329.54433,359.03188L332.54455,361.31183L342.02525,375.35152L338.06496,387.35124L323.06385,393.11111
			L323.18386,404.51086L316.58337,414.71063L304.8225,414.83062L298.70205,431.63024L277.22047,428.27032L268.93985,419.15053L
			255.13883,416.63058L250.5785,423.59043L243.25796,423.47043L228.25685,435.95015L214.81586,430.79026L200.89483,443.74997L194.17433,439.43007
			L186.37376,443.50998L172.93277,420.4705L175.45295,418.79053L164.05211,404.27086L160.81187,400.31095L154.69142,404.51086L
			153.0113,402.95089L154.4514,397.91101L157.33161,387.83123L150.61112,386.63126L142.33051,385.0713L143.29058,375.11152L143.6506,370.07164
			L150.85114,359.39188L151.57119,352.79203L147.01085,347.39215L141.25043,340.5523L138.97026,337.91236L143.6506,334.67244L143.89062,330.95252
			L150.01107,332.15249L151.6912,330.95252L153.97137,336.47239L154.93144,339.11234L157.93166,341.75228L162.25198,345.47219L
			165.61223,352.19204L166.33228,353.752L168.73246,358.5519L169.21249,359.51187L172.69275,366.35172L173.29279,367.67169L176.77305,374.75153
			L183.13352,373.19156L185.89372,372.47158L190.57407,364.19177L194.77438,363.59178L200.4148,350.39208L201.25486,348.35213L
			204.25508,345.95218L217.69607,335.27242L224.53658,340.07231L228.37686,337.91236L236.89749,333.35247L238.93764,334.07245L
			243.01794,335.75241L244.81807,336.47239L252.97868,332.39249L252.85867,327.2326L256.93897,327.5926L258.85911,327.71259L263.17943,320.63275
			L274.70028,326.75261L278.90059,323.99268L279.98067,323.27269L283.34092,321.11274L294.74176,313.67291L307.22268,309.95299
			L316.9434,296.5133L334.70471,299.03324L344.18541,303.95313L350.7859,301.55318L353.66611,300.59321L357.50639,299.27324L362.66677,297.35328
			L370.94738,280.19367L376.94783,275.87376L378.38793,281.51364L376.5878,292.43339L386.0685,303.23315L374.30763,309.35301L374.30763,318.11281
			L363.26682,325.43264L359.90657,327.5926L362.66677,333.11247L348.1457,350.51208L339.38505,349.07211z"/>
	</g>
	<g id="Neuchatel">
		<path class="CHBezirke" id="NE" d="
			M157.69164,208.79528L154.69142,210.11525L154.57141,212.87519L154.33139,215.27513L149.77106,217.91507L149.41103,219.35504
			L144.85069,221.51499L141.61045,225.35491L138.37021,229.19482L137.41014,230.87478L135.00997,230.2748L134.52993,227.75485L
			134.28991,226.43488L133.44985,222.95496L132.48978,218.27507L132.36977,217.31509L125.04923,222.35497L122.76906,223.91494L
			119.52882,226.19489L118.20873,226.79487L115.92856,227.87485L113.52838,228.95482L111.72825,229.79481L110.52816,230.2748L104.64773,233.03473
			L94.92701,234.4747L93.84693,230.0348L91.20673,218.15507L96.84715,212.3952L99.00731,210.23525L100.44742,208.67528L114.12843,205.31536
			L128.76951,194.99559L132.36977,192.47565L128.76951,189.35572L134.76995,184.31583L143.17057,176.996L151.81121,169.79616L154.33139,178.55596
			L155.65149,183.47585L157.0916,183.11586L161.29191,182.03589L164.41214,181.3159L166.33228,180.83591L168.97247,180.11593L171.73268,179.51594
			L175.33294,178.55596L177.85313,177.95598L178.8132,177.71598L177.01307,180.71592L185.05366,185.39581L185.17367,186.83578L
			185.29368,188.39574L185.5337,191.51567L183.85357,192.23565L183.61355,193.31563L180.85335,195.11559L178.33316,196.67555L177.97314,198.11552
			L177.73312,199.67549L177.4931,201.35545L177.25309,202.55542L173.77283,203.3954L171.73268,202.19543L170.05255,201.23545L168.61245,202.67542
			L166.5723,204.71537L157.69164,208.79528z"/>
	</g>
	<g id="Geneve">
		<path class="CHBezirke" id="GE" d="
			M62.04458,352.91202L60.9645,354.47199L63.00465,357.47192L65.16481,360.83184L69.60514,357.59192L70.20518,358.91189L71.40527,361.67183
			L67.80501,366.23172L62.2846,369.71164L59.40439,371.39161L53.16392,375.23152L51.60381,379.31143L47.28349,381.59137L44.28327,383.03134
			L39.36291,380.5114L36.96273,381.47138L31.08229,384.11132L28.20208,383.51133L23.28172,382.31136L22.44166,384.23132L19.56144,385.0713
			L22.92169,378.47145L24.84183,374.99152L21.12156,367.3117L25.92191,364.43176L30.60226,361.91182L33.00244,363.71178L37.68278,359.63187
			L41.04303,362.51181L44.04325,360.11186L43.3232,358.07191L41.28305,352.67203L44.04325,350.03209L44.88331,345.83218L46.92346,348.59212
			L51.4838,350.51208L51.12377,355.91196L49.56366,359.27188L48.7236,361.07184L48.24356,365.03175L47.64352,369.23165L48.60359,369.71164
			L51.24378,368.15168L54.48402,362.6318L54.96406,357.83191L56.8842,356.99193L57.84427,355.67196L60.48447,351.95204L62.40461,349.3121
			L63.96472,349.91209L62.04458,352.91202zM52.08384,336.59239L53.04392,336.2324L57.60425,338.51235L56.76419,341.51228L54.84405,340.7923
			L52.08384,336.59239z"/>
	</g>
	<g id="Jura">
		<path class="CHBezirke" id="JU" d="M222.73644,139.67684L221.17633,139.67684
			L219.25619,143.03677L213.61577,142.67678L211.45561,142.55678L206.41524,142.19679L204.13507,142.07679L198.49465,141.7168L
			196.93454,141.5968L196.21448,144.83673L195.97447,145.9167L195.49443,147.95666L194.65437,152.27656L184.57363,152.99654L181.4534,153.11654
			L179.53325,156.11647L178.33316,157.67644L177.01307,159.71639L176.17301,160.91636L175.09293,162.35633L173.4128,164.75628L
			171.73268,167.27622L165.85224,164.27629L165.2522,164.87627L164.29213,165.71625L160.81187,169.07618L156.61156,173.03609L154.81143,167.27622
			L151.81121,169.79616L150.97115,166.67623L157.33161,160.67637L165.73223,153.11654L165.01218,142.91677L172.0927,140.87682L
			174.25286,140.27683L175.33294,135.71693L177.97314,134.87695L182.05344,133.55698L176.29301,126.95713L175.09293,125.63716L
			169.45251,128.1571L163.9321,128.63709L159.73179,129.11708L156.01152,129.47707L159.01174,123.23721L161.05189,118.79731L164.65215,118.79731
			L164.89217,112.79745L167.53237,110.99749L173.65282,106.67759L173.29279,105.95761L171.01262,99.95774L176.53303,97.91779L178.93321,98.99776
			L184.2136,101.39771L189.01395,99.35775L191.65415,98.03778L196.21448,100.91772L202.21493,100.31773L199.57473,106.55759L197.65459,110.99749
			L200.89483,111.23749L206.77526,111.83747L208.45539,115.1974L220.21626,111.35748L219.4962,112.91745L224.41657,116.87736L225.25663,116.99736
			L227.05676,117.11735L232.81719,122.15724L235.57739,124.67718L237.97757,125.03717L238.57761,125.15717L243.01794,125.87715
			L243.97801,126.11715L247.21825,126.59714L249.37841,128.99708L250.69851,130.19706L252.0186,131.75702L247.9383,135.59694L253.09868,136.31692
			L243.49798,138.83686L240.25774,138.95686L236.53746,139.19685L233.53724,139.31685L229.21692,139.43685L226.93675,139.55685
			L222.73644,139.67684z"/>
		
	</g>
	
	<g id="Seen">
			<path class="CHSeen" d="M415.8307,135.11695L416.19072,134.15697
				L417.2708,132.597L414.87063,131.03704L414.5106,128.5171L410.91033,124.31719L409.71025,124.43719L409.95026,127.55712L415.8307,135.11695
				z"/>
			<path class="CHSeen" d="M401.06961,147.35667L406.10998,149.75662
				L407.31007,150.2366L408.51016,149.75662L415.59068,156.95645L418.5909,159.95638L419.67098,159.83639L429.63172,159.1164L430.47178,156.95645
				L432.1519,156.47646L430.23176,159.4764L431.55186,159.95638L436.71224,161.99634L439.71246,159.2364L446.55297,158.51642L450.87328,157.31644
				L451.35332,155.99647L451.83336,154.9165L447.75305,154.6765L442.83269,156.59646L439.23243,155.51648L437.19227,156.95645L434.55208,155.75648
				L432.51193,154.6765L432.99196,152.63655L430.23176,152.15656L429.03167,153.11654L427.47156,153.23654L421.59112,153.47653L
				417.63083,151.19658L413.1905,148.67664L411.63039,147.95666L404.66987,145.19672L403.46979,143.39676L401.90967,140.99681L399.98953,138.35687
				L397.70936,133.19699L396.50927,130.31705L393.74907,125.99715L392.90901,126.47714L392.66899,129.71707L393.86908,132.35701
				L395.66921,136.19692L396.38926,139.07686L399.02946,143.63675L400.34955,146.0367L401.06961,147.35667z"/>
			<path class="CHSeen" d="M292.34158,273.47382L290.18142,270.83388
				L288.14127,270.23389L282.14083,270.83388L280.94074,270.95388L279.14061,266.75397L271.82007,263.63404L267.73977,260.03412
				L264.85955,257.39418L263.77947,258.11417L263.41945,262.43407L268.33981,267.59395L274.58027,270.47389L274.22024,272.63384
				L277.34047,274.07381L281.30077,275.99376L287.06119,275.27378L288.5013,274.1938L290.42144,275.15378L291.98155,274.1938L292.34158,273.47382
				z"/>
			<path class="CHSeen" d="M300.38217,268.19394L300.62219,268.67393
				L305.30254,269.39391L308.30276,267.23396L318.86354,260.03412L322.4638,258.35416L323.90391,258.47416L323.90391,255.83422L
				319.22357,254.75424L316.58337,255.35423L309.02281,261.47409L305.54256,264.47402L300.38217,268.19394z"/>
			<path class="CHSeen" d="M183.85357,192.23565L183.61355,193.31563
				L185.5337,194.39561L192.13418,190.4357L193.33427,187.79576L195.0144,188.87573L187.57385,194.7556L188.17389,195.71558L190.21404,195.95557
				L192.25419,195.11559L195.37442,193.91562L198.01462,191.75567L198.13463,191.15568L198.13463,190.3157L199.45472,190.67569L
				201.37487,186.47579L201.97491,185.03582L204.85512,179.63594L205.9352,178.07597L206.89527,176.63601L206.41524,175.79603L204.13507,177.47599
				L199.81475,181.07591L195.25441,184.91582L192.3742,186.59578L189.49399,188.39574L188.77394,190.1957L185.5337,191.51567L183.85357,192.23565
				z"/>
			<path class="CHSeen" d="M120.24888,246.35443L120.36889,246.95442
				L121.929,248.63438L123.60913,248.51438L132.00975,244.31448L136.57008,245.15446L139.09027,243.83449L142.81054,239.99458L144.9707,237.95462
				L148.21094,236.39466L153.0113,231.71476L154.21138,230.51479L157.69164,227.03487L161.41192,223.91494L163.9321,221.87499L165.61223,220.55501
				L167.29235,219.11505L170.17256,215.75512L172.21271,214.07516L178.45317,209.03528L179.05322,208.19529L179.65326,207.23532
				L180.25331,206.27534L177.25309,202.55542L173.77283,203.3954L171.73268,202.19543L170.05255,201.23545L168.61245,202.67542L
				166.5723,204.71537L157.69164,208.79528L154.69142,210.11525L154.57141,212.87519L154.33139,215.27513L149.77106,217.91507L149.41103,219.35504
				L144.85069,221.51499L141.61045,225.35491L138.37021,229.19482L137.41014,230.87478L136.09005,233.27473L131.88974,235.67467
				L129.84959,238.19462L127.68943,239.27459L127.08938,240.47456L121.68898,243.71449L120.24888,246.35443z"/>
			<path class="CHSeen" d="M351.14592,159.83639L351.50595,158.51642
				L351.74597,157.67644L353.18607,158.15643L354.14614,158.51642L354.98621,162.11634L355.46624,162.83632L356.3063,164.39628L
				355.94628,165.11627L355.34623,166.07625L353.42609,163.19631L351.14592,159.83639z"/>
			<path class="CHSeen" d="M333.86465,167.39622L334.34468,167.03622
				L336.98488,169.19618L341.4252,172.79609L344.18541,176.39601L342.86531,177.95598L342.26527,178.79596L340.34513,177.116L335.42476,172.6761
				L333.98466,171.47612L333.86465,168.83618L333.86465,167.39622z"/>
			<path class="CHSeen" d="M344.78545,137.1569L345.26549,141.4768
				L345.74552,145.07672L347.90568,150.4766L348.38572,151.91657L348.86575,151.79657L349.58581,147.71666L349.10577,146.0367L348.86575,145.19672
				L346.8256,137.87688L345.74552,136.55691L344.78545,137.1569z"/>
			<path class="CHSeen" d="M381.50816,166.67623L384.50839,164.99627
				L389.66877,167.27622L387.98864,178.67596L391.4689,184.07584L392.30896,188.15575L390.50883,189.95571L386.66854,186.23579L
				383.18829,183.11586L384.86841,180.59592L386.30852,180.35592L386.0685,178.91596L383.54831,178.43597L381.74818,167.9962L381.50816,166.67623
				z"/>
			<path class="CHSeen" d="M365.30697,207.47531L365.18696,209.63526
				L363.74685,210.59524L360.3866,212.87519L358.58647,213.35518L356.90635,212.2752L361.10666,209.87526L364.10688,209.03528L364.22689,207.11532
				L361.34668,207.47531L362.30675,205.55535L361.82671,203.6354L360.74663,201.83544L362.30675,200.99546L364.10688,203.27541L
				365.787,202.19543L364.94694,198.35552L365.42698,196.91555L363.86686,195.35558L361.10666,192.35565L364.22689,191.99566L367.46713,194.99559
				L368.66722,196.31556L374.18762,190.79569L378.98798,185.8758L379.58802,186.23579L378.38793,189.47572L377.30785,192.71564L
				373.22755,196.43556L374.30763,197.75553L379.228,196.55556L383.78833,198.23552L386.30852,202.55542L385.82848,204.35538L391.22888,204.35538
				L393.86908,205.43536L396.8693,204.71537L400.10954,202.67542L404.06983,204.35538L404.54986,206.39533L405.86996,212.87519L
				404.54986,217.43509L406.47001,220.07503L406.71002,223.19496L405.0299,224.15493L403.94982,226.07489L402.14969,224.27493L402.14969,221.87499
				L402.50971,220.19502L400.22955,217.31509L400.70958,214.79515L402.50971,206.39533L401.30963,205.19536L399.26947,206.15534
				L392.42897,209.15527L389.18873,210.59524L381.14814,208.91528L376.94783,207.23532L376.94783,206.03534L382.58824,204.11539
				L382.82826,203.03541L371.90746,202.55542L369.7473,202.43542L366.86708,206.75533L365.30697,207.47531z"/>
			<path class="CHSeen" d="M425.91144,173.03609L428.91166,178.79596
				L428.67165,180.59592L432.63194,184.55583L434.07204,182.99586L431.19183,181.07591L429.63172,170.63614L428.19161,170.03616
				L425.79143,171.35613L425.91144,173.03609z"/>
			<path class="CHSeen" d="M345.14548,231.59477L348.62574,229.67481
				L350.54588,226.79487L352.10599,226.67488L351.74597,228.47484L351.50595,230.0348L347.78567,233.39472L346.22556,235.79467L
				344.18541,233.75472L345.14548,231.59477z"/>
			<path class="CHSeen" d="M490.71623,174.11606L502.95713,173.87607
				L502.71711,176.27602L501.87705,176.51601L494.79653,177.35599L486.99595,176.756L483.75571,176.15602L480.39546,175.55603L475.23508,174.59605
				L474.03499,173.63608L476.07514,172.31611L490.71623,174.11606z"/>
			<path class="CHSeen" d="M401.30963,176.996L405.62994,178.67596
				L407.43008,181.3159L408.63017,178.67596L406.71002,175.55603L402.2697,174.23606L401.18962,174.35606L401.30963,176.996z"/>
			<path class="CHSeen" d="M187.81386,285.11356L187.69386,283.1936
				L187.57385,280.43366L186.61378,276.35375L187.33383,274.55379L186.73379,272.99383L189.614,269.9939L189.97402,269.03392L187.21382,265.554
				L188.53392,263.15405L185.5337,265.434L185.65371,268.19394L187.45384,268.91392L185.05366,271.79386L184.2136,273.95381L185.5337,275.51377
				L185.77371,280.55366L186.37376,284.99356L187.81386,285.11356z"/>
			<path class="CHSeen" d="M177.73312,221.99498L178.8132,222.71497
				L180.73334,223.91494L184.93365,222.23498L185.5337,220.55501L186.37376,220.43502L187.33383,220.43502L188.53392,218.99505L
				189.97402,217.43509L191.89417,215.15514L190.45406,213.11518L189.13396,212.87519L186.37376,214.19516L182.05344,216.35511L
				180.97336,217.55508L180.01329,218.27507L178.45317,219.47504L177.73312,221.99498z"/>
			<path class="CHSeen" d="M461.31406,32.63926L468.03455,39.11912
				L476.43517,44.51899L478.35531,44.039L481.95558,47.03894L482.91565,53.2788L485.43584,52.31882L486.51592,53.75878L484.59577,54.71876
				L487.596,57.83869L488.55607,61.19862L486.99595,62.0386L480.51547,60.35864L477.27523,61.07862L473.43495,57.4787L469.11463,58.07869
				L464.07426,56.15873L463.35421,52.9188L468.99462,56.39873L473.19493,56.27873L471.75483,53.99878L460.47399,48.5989L456.5137,45.83896
				L454.83358,46.31895L459.2739,49.79887L458.67386,50.63886L453.63349,47.39893L449.7932,47.51893L448.83313,49.55888L456.63371,53.39879
				L458.43384,55.55874L447.87306,63.59856L442.59267,65.15853L439.95248,64.31855L439.11242,65.03853L442.83269,66.83849L447.033,65.99851
				L450.39325,64.43854L457.8338,60.71863L459.87395,59.75865L463.83424,59.99864L466.95447,60.11864L470.31472,60.23864L471.15478,61.55861
				L474.51503,61.7986L477.27523,62.1586L479.43539,61.67861L481.59555,62.75858L487.11596,65.63852L489.0361,66.59849L495.39657,69.95842
				L497.67674,71.27839L501.75704,74.15832L504.99728,76.67827L508.83756,78.71822L512.31782,80.63818L512.55784,83.63811L512.55784,84.83808
				L516.1581,87.83801L520.83845,91.91792L520.35841,94.07787L522.27856,95.15785L525.87882,97.3178L526.9589,99.11776L531.27922,98.99776
				L533.79941,98.99776L538.11973,94.79786L539.0798,94.79786L541.96001,97.4378L545.80029,96.83781L548.32048,94.55786L550.60065,97.07781
				L553.12083,95.39784L555.64102,96.59782L556.36107,93.71788L559.96134,92.15792L564.52167,92.8779L565.00171,89.99797L560.56138,84.71809
				L557.68117,83.8781L555.76103,85.55807L554.0809,84.83808L554.80096,82.67813L550.96067,82.79813L548.08046,80.27819L544.84022,79.91819
				L542.32004,76.43827L537.51968,77.03826L533.19936,73.43834L530.91919,66.4785L527.79896,63.59856L522.39856,63.71856L517.35819,60.59863
				L506.91742,61.9186L489.51614,49.91887L489.27612,46.31895L478.71534,39.7191L476.7952,39.9591L475.11507,37.55915L465.75438,30.47931
				L462.39413,30.11932L461.31406,32.63926z"/>
			<path class="CHSeen" d="M470.79476,406.43081L476.91521,406.9108
				L481.35553,404.03087L482.79564,405.95082L478.71534,409.79074L470.79476,409.19075L468.15456,411.5907L461.31406,415.6706L459.87395,419.63052
				L459.51392,421.43047L458.79387,421.31048L458.67386,422.03046L459.51392,422.87044L459.39391,424.5504L460.83402,426.59036L
				462.51414,429.1103L462.03411,430.19028L461.55407,431.87024L460.95403,431.39025L460.35398,427.43034L457.47377,425.27039L452.79343,430.31027
				L450.87328,432.35023L449.91321,431.75024L450.39325,429.59029L449.07315,428.27032L448.47311,425.99037L449.31317,423.47043
				L448.83313,421.79047L446.31295,421.79047L444.2728,419.27052L444.63282,418.67054L445.83291,418.31055L445.95292,420.2305L448.23309,420.3505
				L449.31317,417.23057L449.07315,414.71063L450.99329,413.15066L451.71335,414.23064L450.03322,417.59056L449.7932,418.31055L
				449.91321,419.63052L450.63327,423.11044L449.7932,426.35036L452.31339,428.63031L453.27346,427.43034L455.55363,424.9104L456.39369,422.51045
				L457.8338,422.03046L458.07382,421.31048L457.35376,421.07048L458.31383,417.23057L458.31383,415.43061L458.31383,414.47063L
				456.75372,413.39066L457.59378,411.11071L461.55407,411.95069L463.2342,411.4707L464.91432,410.87071L467.91454,408.35077L470.79476,406.43081
				z"/>
			<path class="CHSeen" d="M404.90989,471.10935L410.79033,471.10935
				L410.31029,469.90938L407.07005,468.8294L405.98997,465.82947L401.18962,459.46961L402.50971,455.26971L406.10998,455.02972L
				407.43008,453.58975L407.55009,450.82981L410.31029,449.02985L405.26992,435.35016L406.59002,432.35023L408.87018,432.35023L
				407.7901,430.79026L415.11064,424.9104L414.99064,422.75044L422.55119,416.87058L422.31118,415.07062L427.11153,411.71069L427.83158,406.19082
				L425.07138,404.27086L424.83136,398.031L423.39126,395.27107L425.19139,393.11111L425.67142,390.71117L428.43163,390.47117L429.99174,389.03121
				L431.55186,387.47124L434.07204,385.43129L436.71224,383.27134L439.35243,382.31136L441.99263,381.47138L442.47266,378.95143
				L442.83269,377.27147L441.15257,376.0715L439.35243,374.75153L436.2322,376.43149L434.91211,376.55149L435.51215,379.55142L434.07204,380.75139
				L432.75195,382.07136L429.87173,380.15141L425.91144,381.35138L423.39126,384.23132L419.79099,391.31116L419.07094,393.35111
				L421.47111,401.03094L422.31118,406.07082L417.2708,408.59076L410.19028,419.03053L408.87018,422.39045L402.38971,426.59036L
				400.58957,430.79026L393.98909,425.63038L390.86885,425.63038L389.18873,427.43034L392.42897,431.15025L394.82915,435.95015L
				400.82959,438.71008L402.74973,446.50991L401.42963,451.4298L398.78944,451.90979L397.70936,455.5097L399.02946,461.02958L401.18962,462.94954
				L402.02968,466.18946L404.42986,468.22942L404.90989,471.10935z"/>
			<path class="CHSeen" d="M62.76463,283.43359L63.36468,284.75356
				L64.56477,283.67359L74.76552,275.63377L75.72559,273.35382L75.00554,272.87383L64.32475,281.39364L62.76463,283.43359z"/>
			<path class="CHSeen" d="M129.24954,327.11261L143.89062,330.95252
				L150.01107,332.15249L151.6912,330.95252L160.45184,330.83252L162.13197,328.07258L161.05189,325.43264L154.33139,320.51276L
				150.85114,317.87282L147.97092,315.71286L145.21072,315.23287L143.05056,314.87288L141.25043,314.51289L139.81032,314.2729L136.09005,311.75295
				L135.00997,311.03297L131.76973,311.63296L130.56964,310.91297L128.88951,309.95299L125.28925,307.91304L123.96915,307.79304
				L120.36889,307.67305L112.4483,304.79311L108.368,306.83306L105.24777,306.83306L101.88752,304.67311L97.92723,308.03304L96.72714,310.19299
				L90.36667,314.0329L85.56632,316.79284L84.12621,316.31285L82.08606,315.47287L78.12577,316.19285L73.56543,319.91277L71.64529,322.07272
				L70.20518,323.63269L67.20496,329.87254L66.72493,330.95252L62.88464,331.7925L59.76441,335.87241L57.60425,338.51235L56.76419,341.51228
				L55.92413,344.39222L53.64396,347.51215L52.68389,348.71212L51.4838,350.51208L51.12377,355.91196L49.56366,359.27188L48.7236,361.07184
				L48.24356,365.03175L47.64352,369.23165L48.60359,369.71164L51.24378,368.15168L54.48402,362.6318L54.96406,357.83191L56.8842,356.99193
				L57.84427,355.67196L60.48447,351.95204L62.40461,349.3121L66.84493,339.47233L70.92524,336.1124L77.76574,335.99241L79.20585,339.95232
				L83.28615,341.75228L86.88641,337.55237L89.4066,337.55237L96.24711,334.43244L97.20718,330.71252L102.12754,328.31258L106.08783,330.47253
				L129.24954,327.11261z"/>
		</g>
		
		
		<!-- ************** Legende fuer Choropleten-Darstellung: ****************** -->
		
		<text class="LegendeUeberschrift" x="10" y="20"><tspan>Anteil der Ja-Stimmen</tspan></text>
		
		<g id="Klassen"><rect id="kaestchen" width="15" height="15" x="10" y="30" fill="none" stroke="black" stroke-width="1" /></g>
		
		<text id="beschriftung" class="LegendeBeschriftung" x="30" y="22.5"><tspan x="30" dy="20"> </tspan></text>
		
		
		<!-- *********************************************************************** -->
		
		
		
		<!-- Massstab bitte stehen lassen! -->
		<g id="massstab" transform="translate(280,480)">
			<rect x="0" y="0" width="47.15" height="5" fill="#999999" stroke="#999999" />
			<rect x="47.15" y="0" width="47.15" height="5" fill="none" stroke="#999999" />
			<text class="MassstabText">
				<tspan y="-3">0</tspan>
				<tspan x="47.15" y="-3">25</tspan>
				<tspan x="87" y="-3" text-anchor="start">50 km</tspan>
			</text>
		</g>
		
		
		<!-- Copyright bitte stehen lassen! -->
		<text id="copyright" x="10" y="485" text-anchor="start"><tspan>&#169; Kartengrundlage: BfS, ThemaKart</tspan></text>
		
		
		
		
		<!-- **************  Bitte tragen Sie hinter "Autor: " Ihren Namen ein: ****************** -->
		
		<text id="autor" x="690" y="473">
			<tspan class="autor" x="690" font-weight="bold">Autor:</tspan>
			<tspan class="autor" x="690" dy="12">Johannessen, Arne, K8D</tspan>
		</text>
		
		<!-- *********************************************************************** -->
		
		<!-- Kartenschrift (Prototypen) -->
		<text id="mapText"><tspan class="mapTextOutline" x="" y=""> </tspan><tspan class="mapText" x="" y=""> </tspan></text>
		
		
</svg>